<?xml version="1.0" encoding="UTF-8" standalone="no"?>
<!-- Generator: Adobe Illustrator 21.0.0, SVG Export Plug-In . SVG Version: 6.00 Build 0)  -->

<svg
   xmlns:dc="http://purl.org/dc/elements/1.1/"
   xmlns:cc="http://creativecommons.org/ns#"
   xmlns:rdf="http://www.w3.org/1999/02/22-rdf-syntax-ns#"
   xmlns:svg="http://www.w3.org/2000/svg"
   xmlns="http://www.w3.org/2000/svg"
   xmlns:xlink="http://www.w3.org/1999/xlink"
   xmlns:sodipodi="http://sodipodi.sourceforge.net/DTD/sodipodi-0.dtd"
   xmlns:inkscape="http://www.inkscape.org/namespaces/inkscape"
   version="1.1"
   x="0px"
   y="0px"
   viewBox="0 0 124 123"
   xml:space="preserve"
   id="svg188"
   sodipodi:docname="fullscreen-enter-3x_f.svg"
   width="124"
   height="123"
   inkscape:version="0.92.1 r15371"><metadata
     id="metadata194"><rdf:RDF><cc:Work
         rdf:about=""><dc:format>image/svg+xml</dc:format><dc:type
           rdf:resource="http://purl.org/dc/dcmitype/StillImage" /><dc:title></dc:title></cc:Work></rdf:RDF></metadata><defs
     id="defs192" /><sodipodi:namedview
     pagecolor="#ffffff"
     bordercolor="#666666"
     borderopacity="1"
     objecttolerance="10"
     gridtolerance="10"
     guidetolerance="10"
     inkscape:pageopacity="0"
     inkscape:pageshadow="2"
     inkscape:window-width="640"
     inkscape:window-height="480"
     id="namedview190"
     showgrid="false"
     fit-margin-top="0"
     fit-margin-left="0"
     fit-margin-right="0"
     fit-margin-bottom="0"
     inkscape:zoom="0.2079063"
     inkscape:cx="50"
     inkscape:cy="63"
     inkscape:window-x="0"
     inkscape:window-y="0"
     inkscape:window-maximized="0"
     inkscape:current-layer="svg188" /><style
     type="text/css"
     id="style2">
	.st0{display:none;}
	.st1{display:inline;fill:#C90D0D;}
	.st2{display:inline;stroke:#FFFFFF;stroke-width:16;stroke-miterlimit:10;}
	.st3{display:inline;stroke:#FFFFFF;stroke-width:40;stroke-miterlimit:10;}
	.st4{display:inline;fill:#FFFFFF;stroke:#000000;stroke-width:16;stroke-miterlimit:10;}
	.st5{display:inline;fill:#FFFFFF;stroke:#000000;stroke-width:19;stroke-miterlimit:10;}
	.st6{display:inline;fill:#FFFFFF;stroke:#000000;stroke-width:15;stroke-miterlimit:10;}
	.st7{display:inline;fill:#FFFFFF;stroke:#A7A7A7;stroke-width:12;stroke-miterlimit:10;}
	.st8{display:inline;fill:#FFFFFF;stroke:#000000;stroke-width:12;stroke-miterlimit:10;}
	.st9{display:inline;fill:#A7A7A7;stroke:#A7A7A7;stroke-width:12;stroke-miterlimit:10;}
	.st10{display:inline;fill:#FFFFFF;stroke:#6F6F6F;stroke-width:12;stroke-miterlimit:10;}
	.st11{display:inline;fill:#6F6F6F;stroke:#6F6F6F;stroke-width:12;stroke-miterlimit:10;}
	.st12{display:inline;fill:#FFFFFF;stroke:#C6C6C6;stroke-width:12;stroke-miterlimit:10;}
	.st13{display:inline;fill:#C6C6C6;stroke:#C6C6C6;stroke-width:12;stroke-miterlimit:10;}
	.st14{display:inline;fill:#FFFFFF;}
	.st15{display:inline;}
	.st16{clip-path:url(#SVGID_2_);fill:#FFFFFF;}
	.st17{fill:#FFFFFF;}
</style><g
     id="Layer_2"
     class="st0"
     style="display:none"
     transform="translate(-633,-324)"><rect
       x="402"
       y="212"
       class="st1"
       width="557"
       height="330"
       id="rect4"
       style="display:inline;fill:#c90d0d" /></g><g
     id="Layer_3"
     class="st0"
     style="display:none"
     transform="translate(-633,-324)"><circle
       class="st2"
       cx="682.79999"
       cy="374.79999"
       r="63.799999"
       id="circle7"
       style="display:inline;stroke:#ffffff;stroke-width:16;stroke-miterlimit:10" /><path
       class="st3"
       d="m 733.9,443.8 v 0 c 0.3,-0.2 0.3,-0.6 0.1,-0.9 l -19.3,-24.6 c -0.2,-0.3 -0.6,-0.3 -0.9,-0.1 v 0 c -0.3,0.2 -0.3,0.6 -0.1,0.9 l 19.3,24.6 c 0.2,0.3 0.6,0.3 0.9,0.1 z"
       id="path9"
       inkscape:connector-curvature="0"
       style="display:inline;stroke:#ffffff;stroke-width:40;stroke-miterlimit:10" /></g><g
     id="Layer_1"
     class="st0"
     style="display:none"
     transform="translate(-633,-324)"><circle
       class="st4"
       cx="683"
       cy="375"
       r="49"
       id="circle12"
       style="display:inline;fill:#ffffff;stroke:#000000;stroke-width:16;stroke-miterlimit:10" /><path
       class="st5"
       d="m 732.2,441.8 v 0 c 0.2,-0.2 0.3,-0.5 0.1,-0.7 l -14.8,-18.9 c -0.2,-0.2 -0.5,-0.3 -0.7,-0.1 v 0 c -0.2,0.2 -0.3,0.5 -0.1,0.7 l 14.8,18.9 c 0.2,0.3 0.5,0.3 0.7,0.1 z"
       id="path14"
       inkscape:connector-curvature="0"
       style="display:inline;fill:#ffffff;stroke:#000000;stroke-width:19;stroke-miterlimit:10" /></g><g
     id="Layer_4"
     class="st0"
     style="display:none"
     transform="translate(-633,-324)"><rect
       x="682.5"
       y="358.5"
       class="st6"
       width="1"
       height="33"
       id="rect17"
       style="display:inline;fill:#ffffff;stroke:#000000;stroke-width:15;stroke-miterlimit:10" /><rect
       x="665.5"
       y="374.5"
       class="st6"
       width="35"
       height="1"
       id="rect19"
       style="display:inline;fill:#ffffff;stroke:#000000;stroke-width:15;stroke-miterlimit:10" /></g><g
     id="left"
     class="st0"
     style="display:none"
     transform="translate(-633,-324)"><circle
       class="st7"
       cx="694"
       cy="384"
       r="55"
       id="circle22"
       style="display:inline;fill:#ffffff;stroke:#a7a7a7;stroke-width:12;stroke-miterlimit:10" /><path
       class="st8"
       d="M 511,254"
       id="path24"
       inkscape:connector-curvature="0"
       style="display:inline;fill:#ffffff;stroke:#000000;stroke-width:12;stroke-miterlimit:10" /><polygon
       class="st9"
       points="705.4,366.6 674.4,384.5 705.4,402.4 "
       id="polygon26"
       style="display:inline;fill:#a7a7a7;stroke:#a7a7a7;stroke-width:12;stroke-miterlimit:10" /></g><g
     id="Layer_18"
     class="st0"
     style="display:none"
     transform="translate(-633,-324)"><circle
       class="st7"
       cx="694"
       cy="384"
       r="55"
       id="circle29"
       style="display:inline;fill:#ffffff;stroke:#a7a7a7;stroke-width:12;stroke-miterlimit:10" /><polygon
       class="st9"
       points="705.4,366.6 674.4,384.5 705.4,402.4 "
       id="polygon31"
       style="display:inline;fill:#a7a7a7;stroke:#a7a7a7;stroke-width:12;stroke-miterlimit:10" /></g><g
     id="right"
     class="st0"
     style="display:none"
     transform="translate(-633,-324)"><circle
       class="st7"
       cx="694"
       cy="384"
       r="55"
       id="circle34"
       style="display:inline;fill:#ffffff;stroke:#a7a7a7;stroke-width:12;stroke-miterlimit:10" /><polygon
       class="st9"
       points="682.6,401.4 713.6,383.5 682.6,365.6 "
       id="polygon36"
       style="display:inline;fill:#a7a7a7;stroke:#a7a7a7;stroke-width:12;stroke-miterlimit:10" /></g><g
     id="left_x5F_dark"
     class="st0"
     style="display:none"
     transform="translate(-633,-324)"><circle
       class="st10"
       cx="694"
       cy="384"
       r="55"
       id="circle39"
       style="display:inline;fill:#ffffff;stroke:#6f6f6f;stroke-width:12;stroke-miterlimit:10" /><polygon
       class="st11"
       points="705.4,366.6 674.4,384.5 705.4,402.4 "
       id="polygon41"
       style="display:inline;fill:#6f6f6f;stroke:#6f6f6f;stroke-width:12;stroke-miterlimit:10" /></g><g
     id="right_x5F_dark"
     class="st0"
     style="display:none"
     transform="translate(-633,-324)"><circle
       class="st10"
       cx="694"
       cy="384"
       r="55"
       id="circle44"
       style="display:inline;fill:#ffffff;stroke:#6f6f6f;stroke-width:12;stroke-miterlimit:10" /><polygon
       class="st11"
       points="682.6,401.4 713.6,383.5 682.6,365.6 "
       id="polygon46"
       style="display:inline;fill:#6f6f6f;stroke:#6f6f6f;stroke-width:12;stroke-miterlimit:10" /></g><g
     id="left_x5F_disabled"
     class="st0"
     style="display:none"
     transform="translate(-633,-324)"><circle
       class="st12"
       cx="694"
       cy="384"
       r="55"
       id="circle49"
       style="display:inline;fill:#ffffff;stroke:#c6c6c6;stroke-width:12;stroke-miterlimit:10" /><polygon
       class="st13"
       points="705.4,366.6 674.4,384.5 705.4,402.4 "
       id="polygon51"
       style="display:inline;fill:#c6c6c6;stroke:#c6c6c6;stroke-width:12;stroke-miterlimit:10" /></g><g
     id="right_x5F_disabled"
     class="st0"
     style="display:none"
     transform="translate(-633,-324)"><circle
       class="st12"
       cx="694"
       cy="384"
       r="55"
       id="circle54"
       style="display:inline;fill:#ffffff;stroke:#c6c6c6;stroke-width:12;stroke-miterlimit:10" /><polygon
       class="st13"
       points="682.6,401.4 713.6,383.5 682.6,365.6 "
       id="polygon56"
       style="display:inline;fill:#c6c6c6;stroke:#c6c6c6;stroke-width:12;stroke-miterlimit:10" /></g><g
     id="Layer_13"
     class="st0"
     style="display:none"
     transform="translate(-633,-324)"><rect
       x="635"
       y="326"
       class="st14"
       width="120"
       height="120"
       id="rect59"
       style="display:inline;fill:#ffffff" /></g><g
     id="Layer_11"
     class="st0"
     style="display:none"
     transform="translate(-633,-324)"><rect
       x="643.29999"
       y="334.29999"
       class="st15"
       width="103.3"
       height="103.3"
       id="rect62"
       style="display:inline" /><rect
       x="668.5"
       y="352.70001"
       transform="matrix(0.7071,-0.7071,0.7071,0.7071,-62.1315,586.9907)"
       class="st15"
       width="17.9"
       height="31.6"
       id="rect64"
       style="display:inline" /><rect
       x="703.5"
       y="387.70001"
       transform="matrix(0.7071,-0.7071,0.7071,0.7071,-76.6333,622.0013)"
       class="st15"
       width="17.9"
       height="31.6"
       id="rect66"
       style="display:inline" /></g><g
     id="Layer_12"
     class="st0"
     style="display:none"
     transform="translate(-633,-324)"><g
       class="st15"
       id="g77"
       style="display:inline"><defs
         id="defs70"><rect
           id="SVGID_1_"
           x="643"
           y="334"
           width="104"
           height="104" /></defs><clipPath
         id="SVGID_2_"><use
           xlink:href="#SVGID_1_"
           style="overflow:visible"
           id="use72"
           x="0"
           y="0"
           width="100%"
           height="100%" /></clipPath><rect
         x="658.40002"
         y="284"
         transform="matrix(-0.7071,-0.7071,0.7071,-0.7071,913.496,1150.3824)"
         class="st16"
         width="73.199997"
         height="204"
         clip-path="url(#SVGID_2_)"
         id="rect75"
         style="fill:#ffffff" /></g></g><g
     id="Layer_17"
     class="st0"
     style="display:none"
     transform="translate(-633,-324)"><rect
       x="635"
       y="396"
       class="st14"
       width="53"
       height="50"
       id="rect80"
       style="display:inline;fill:#ffffff" /><rect
       x="702"
       y="326"
       class="st14"
       width="53"
       height="50"
       id="rect82"
       style="display:inline;fill:#ffffff" /></g><g
     id="Layer_25"
     transform="translate(-633,-324)"><rect
       x="666.70001"
       y="350.39999"
       transform="matrix(0.7071,-0.7071,0.7071,0.7071,-61.368,585.5046)"
       class="st17"
       width="18.700001"
       height="32.900002"
       id="rect85"
       style="fill:#ffffff" /><rect
       x="695.5"
       y="381.29999"
       transform="matrix(0.7071,-0.7071,0.7071,0.7071,-75.6289,619.9333)"
       class="st17"
       width="30"
       height="40"
       id="rect87"
       style="fill:#ffffff" /><rect
       x="662.5"
       y="351.29999"
       transform="matrix(0.7071,-0.7071,0.7071,0.7071,-63.2025,589.9333)"
       class="st17"
       width="36"
       height="40"
       id="rect89"
       style="fill:#ffffff" /></g><g
     id="Layer_26"
     transform="translate(-633,-324)"><polygon
       class="st17"
       points="633,410 633,324 719,324 "
       id="polygon92"
       style="fill:#ffffff" /><polygon
       class="st17"
       points="753.8,369.8 753.8,443.8 679.8,443.8 "
       id="polygon94"
       style="fill:#ffffff" /><rect
       x="690"
       y="378.70001"
       transform="matrix(-0.7071,0.7071,-0.7071,-0.7071,1490.5842,180.0621)"
       class="st17"
       width="36"
       height="40"
       id="rect96"
       style="fill:#ffffff" /><polygon
       class="st17"
       points="757,361 757,447 671,447 "
       id="polygon98"
       style="fill:#ffffff" /></g><g
     id="Layer_23"
     transform="translate(-633,-324)"><polygon
       points="643,386 643,334 695,334 "
       id="polygon101" /><polygon
       points="747,386 747,438 695,438 "
       id="polygon103" /></g><g
     id="Layer_24"
     transform="translate(-633,-324)"><rect
       x="666.70001"
       y="350.39999"
       transform="matrix(0.7071,-0.7071,0.7071,0.7071,-61.368,585.5046)"
       width="18.700001"
       height="32.900002"
       id="rect106" /><rect
       x="703.20001"
       y="386.79999"
       transform="matrix(0.7071,-0.7071,0.7071,0.7071,-76.4573,621.9333)"
       width="18.700001"
       height="32.900002"
       id="rect108" /></g><g
     id="Layer_14"
     class="st0"
     style="display:none"
     transform="translate(-633,-324)"><rect
       x="714.70001"
       y="334"
       class="st14"
       width="26"
       height="94"
       id="rect111"
       style="display:inline;fill:#ffffff" /><rect
       x="654.90002"
       y="390.39999"
       class="st15"
       width="13.1"
       height="47.599998"
       id="rect113"
       style="display:inline" /><rect
       x="654.90002"
       y="340.20001"
       class="st15"
       width="13.1"
       height="19.200001"
       id="rect115"
       style="display:inline" /><rect
       x="681.70001"
       y="385"
       transform="rotate(-90,694.7,431)"
       class="st14"
       width="26"
       height="92"
       id="rect117"
       style="display:inline;fill:#ffffff" /><rect
       x="681.5"
       y="294.29999"
       transform="rotate(-90,694.47885,340.54515)"
       class="st14"
       width="26"
       height="92.5"
       id="rect119"
       style="display:inline;fill:#ffffff" /><polygon
       class="st14"
       points="693,409 661.5,353 630,409 "
       id="polygon121"
       style="display:inline;fill:#ffffff" /><polygon
       class="st15"
       points="707.4,368.8 727.9,404.8 748.3,368.8 "
       id="polygon123"
       style="display:inline" /><polygon
       class="st14"
       points="696,362 727.5,418 759,362 "
       id="polygon125"
       style="display:inline;fill:#ffffff" /><rect
       x="648.20001"
       y="334"
       class="st14"
       width="26"
       height="110"
       id="rect127"
       style="display:inline;fill:#ffffff" /></g><g
     id="Layer_19"
     class="st0"
     style="display:none"
     transform="translate(-633,-324)"><rect
       x="721.09998"
       y="334"
       class="st15"
       width="13.1"
       height="47.599998"
       id="rect130"
       style="display:inline" /><rect
       x="654.90002"
       y="390.39999"
       class="st15"
       width="13.1"
       height="47.599998"
       id="rect132"
       style="display:inline" /><rect
       x="721.29999"
       y="412.29999"
       class="st15"
       width="13.1"
       height="19.200001"
       id="rect134"
       style="display:inline" /><rect
       x="654.90002"
       y="340.20001"
       class="st15"
       width="13.1"
       height="19.200001"
       id="rect136"
       style="display:inline" /><rect
       x="688.59998"
       y="392.20001"
       transform="rotate(-90,695.1175,431.4548)"
       class="st15"
       width="13.1"
       height="78.5"
       id="rect138"
       style="display:inline" /><rect
       x="687.90002"
       y="301"
       transform="rotate(-90,694.47885,340.54515)"
       class="st15"
       width="13.1"
       height="79.199997"
       id="rect140"
       style="display:inline" /><polygon
       class="st15"
       points="681.9,402.3 661.5,366.8 641,402.3 "
       id="polygon142"
       style="display:inline" /><polygon
       class="st15"
       points="707.4,368.8 727.9,404.8 748.3,368.8 "
       id="polygon144"
       style="display:inline" /></g><g
     id="Layer_15"
     class="st0"
     style="display:none"
     transform="translate(-633,-324)"><polygon
       class="st14"
       points="735.5,373 695,325.5 654.5,373 "
       id="polygon147"
       style="display:inline;fill:#ffffff" /><rect
       x="681.70001"
       y="360"
       class="st14"
       width="26"
       height="47.599998"
       id="rect149"
       style="display:inline;fill:#ffffff" /><polygon
       class="st15"
       points="666,403 695,437 723.9,403 "
       id="polygon151"
       style="display:inline" /><polygon
       class="st14"
       points="654.5,398 695,445.5 735.5,398 "
       id="polygon153"
       style="display:inline;fill:#ffffff" /></g><g
     id="Layer_22"
     class="st0"
     style="display:none"
     transform="translate(-633,-324)"><rect
       x="682"
       y="359.20001"
       class="st14"
       width="26"
       height="47.599998"
       id="rect156"
       style="display:inline;fill:#ffffff" /><polygon
       class="st15"
       points="666.3,402.2 695.2,436.2 724.2,402.2 "
       id="polygon158"
       style="display:inline" /><polygon
       class="st14"
       points="652.8,396.2 694.8,445.5 736.7,396.2 "
       id="polygon160"
       style="display:inline;fill:#ffffff" /><polygon
       class="st14"
       points="736.7,373.7 694.8,324.4 652.8,373.7 "
       id="polygon162"
       style="display:inline;fill:#ffffff" /></g><g
     id="Layer_20"
     class="st0"
     style="display:none"
     transform="translate(-633,-324)"><polygon
       class="st15"
       points="723.9,368 695,334 666,368 "
       id="polygon165"
       style="display:inline" /><rect
       x="688.09998"
       y="360"
       class="st15"
       width="13.1"
       height="47.599998"
       id="rect167"
       style="display:inline" /><polygon
       class="st15"
       points="666,403 695,437 723.9,403 "
       id="polygon169"
       style="display:inline" /></g><g
     id="Layer_21"
     class="st0"
     style="display:none"
     transform="translate(-633,-324)"><rect
       x="683.70001"
       y="361.39999"
       transform="rotate(90.00002,696.71345,385.18331)"
       class="st14"
       width="26"
       height="47.599998"
       id="rect172"
       style="display:inline;fill:#ffffff" /><polygon
       class="st15"
       points="677.5,356.5 643.5,385.5 677.5,414.4 "
       id="polygon174"
       style="display:inline" /><polygon
       class="st14"
       points="683.5,343 634.2,385 683.5,427 "
       id="polygon176"
       style="display:inline;fill:#ffffff" /><polygon
       class="st14"
       points="706,427 755.3,385 706,343 "
       id="polygon178"
       style="display:inline;fill:#ffffff" /></g><g
     id="Layer_16"
     class="st0"
     style="display:none"
     transform="translate(-633,-324)"><polygon
       class="st15"
       points="712.5,414.5 746.5,385.5 712.5,356.5 "
       id="polygon181"
       style="display:inline" /><rect
       x="690.09998"
       y="361.39999"
       transform="rotate(90.00002,696.675,385.22256)"
       class="st15"
       width="13.1"
       height="47.599998"
       id="rect183"
       style="display:inline" /><polygon
       class="st15"
       points="677.5,356.5 643.5,385.5 677.5,414.5 "
       id="polygon185"
       style="display:inline" /></g></svg>