<?xml version="1.0" encoding="utf-8"?>
<svg xmlns="http://www.w3.org/2000/svg" xmlns:xlink="http://www.w3.org/1999/xlink" version="1.1"><defs><font horiz-adv-x="1" id="F0"><font-face units-per-em="2048" font-family="F0" font-weight="700" font-size="149" font-style="italic"/><glyph unicode="P" horiz-adv-x="1357" d="M390 0H82L383 1467H984c107 -1 192 -14 253 -39c63 -25 113 -66 149 -123c36 -58 54 -127 54 -206c0 -74 -14 -146 -43 -216S1332 757 1291 716c-41 -42 -86 -74 -134 -96S1045 582 963 572C916 565 828 561 698 562H505L390 0zM555 809h93c159 -1 265 8 319 28c53 19 95 51 126 94c30 42 45 89 45 141c0 33 -8 62 -24 84c-15 21 -38 38 -66 48s-92 15 -191 16H640L555 809z"/><glyph unicode="r" horiz-adv-x="795" d="M286 1069H552L515 880c104 144 215 216 335 217c43 -1 88 -11 137 -31L864 835c-27 9 -55 14 -86 15C728 849 676 829 623 792C570 752 529 701 500 638C470 573 440 472 411 333L348 0H69L286 1069z"/><glyph unicode="o" horiz-adv-x="1248" d="M123 443c0 198 55 356 164 476c109 118 252 177 429 178c155 -1 275 -45 361 -132c87 -88 130 -205 130 -351c0 -175 -54 -326 -162 -452C937 35 792 -27 610 -27C512 -27 425 -8 349 33C273 72 217 129 179 204c-37 74 -56 153 -56 239zM932 649c0 68 -19 123 -60 165c-39 41 -91 63 -155 63C655 877 599 857 551 818S465 722 438 648C411 573 398 506 398 444c0 -78 21 -140 62 -184c42 -47 94 -69 157 -68c80 -1 147 33 200 103c77 96 115 213 115 354z"/><glyph unicode="d" horiz-adv-x="1248" d="M1060 0H795l23 116C767 63 716 27 665 5S557 -27 494 -27C384 -27 295 9 226 86C158 161 123 273 123 422c0 172 49 327 147 466s226 208 387 209c146 -1 255 -60 327 -178l112 548h279L1060 0zM398 434c0 -78 19 -137 59 -179c39 -42 87 -64 144 -63c53 -1 102 17 148 53c46 35 83 90 110 164c28 73 42 143 42 211c0 76 -21 138 -64 185c-42 48 -91 72 -145 72C606 877 536 829 481 737C426 643 398 542 398 434z"/><glyph unicode="u" horiz-adv-x="1248" d="M315 1069H595L457 434C440 356 431 309 431 291c0 -32 12 -59 34 -80c23 -22 52 -34 87 -33c26 -1 50 4 74 14c24 9 50 24 76 45c26 18 49 41 69 67c21 25 40 58 58 101c12 30 25 79 39 148l105 516h280L1020 0H756l27 137C671 27 548 -27 416 -27C332 -27 266 -3 218 47S146 165 146 250c0 36 12 110 36 221l133 598z"/><glyph unicode="c" horiz-adv-x="1138" d="M795 370l274 -40C1024 213 957 123 868 63C779 2 676 -27 559 -27C425 -27 320 12 241 94C163 175 123 287 123 431c0 116 24 225 72 330c47 104 118 186 212 246c95 59 199 89 312 90c123 -1 222 -35 296 -102c73 -69 114 -157 123 -267L864 699c-7 60 -25 106 -54 135c-29 28 -67 43 -114 43C642 877 591 855 544 814C497 771 461 709 435 626C410 542 398 463 398 391c0 -65 15 -113 46 -148s69 -52 116 -51c46 -1 91 14 134 44c43 29 77 74 101 134z"/><glyph unicode="t" horiz-adv-x="686" d="M123 850l55 219H337l34 165l322 192L617 1069H809L754 850H570L473 396C453 313 443 266 443 255c0 -23 9 -40 26 -52c17 -13 47 -19 90 -18c15 -1 53 2 113 7L617 -14C566 -23 512 -27 457 -27C350 -27 272 -9 224 31c-48 38 -73 93 -73 164c0 32 16 107 48 227l91 428H123z"/><glyph unicode="s" horiz-adv-x="1138" d="M27 297l275 46C329 282 363 239 404 215c42 -26 98 -38 168 -37c74 -1 133 14 177 45c31 20 46 44 46 74c0 19 -7 37 -22 53c-15 14 -57 33 -126 55C464 462 351 508 308 542C240 594 206 663 206 749c0 84 31 157 94 219c88 85 218 128 392 129c137 -1 242 -27 312 -77c71 -52 115 -121 134 -208L864 768c-14 37 -36 65 -67 85c-42 24 -93 37 -152 38C587 890 544 880 518 861C493 841 480 819 480 794c0 -26 14 -48 40 -65c17 -12 71 -31 163 -56C825 631 919 590 967 552c69 -57 102 -124 102 -202C1069 247 1026 159 938 84C851 9 728 -27 569 -27C411 -27 290 0 203 57C117 114 58 194 27 297z"/><glyph unicode=" " horiz-adv-x="562" d=""/><glyph unicode="b" horiz-adv-x="1248" d="M69 0L369 1467H649L546 986c52 39 101 67 146 84s95 26 148 27c111 -1 199 -40 266 -115c67 -76 101 -187 101 -331c0 -98 -16 -193 -47 -285C1129 273 1088 199 1037 142C985 84 931 41 875 14C818 -14 758 -27 696 -27C548 -27 440 38 370 171L333 0H69zM452 436c0 -74 20 -133 60 -177c39 -46 84 -68 138 -67c47 -1 91 16 134 52c43 34 78 91 106 168c29 76 42 154 42 233c0 76 -19 136 -56 180c-38 43 -84 65 -139 66C668 890 608 856 556 789C488 696 452 578 452 436z"/><glyph unicode="y" horiz-adv-x="1138" d="M178 1069H456L524 531C542 394 554 300 560 247c41 104 90 219 147 344l239 478h303L603 -123C550 -213 509 -275 478 -311c-30 -36 -67 -63 -110 -84c-42 -21 -94 -30 -154 -30c-59 0 -126 9 -200 30l27 204c34 -10 68 -15 100 -15c88 0 159 69 215 206L178 1069z"/><glyph unicode="C" horiz-adv-x="1481" d="M1138 521l302 -46C1380 311 1290 187 1171 101S913 -27 752 -27C572 -27 432 26 331 135C230 243 178 399 178 607c0 166 35 318 102 457c69 139 163 245 284 319c122 74 253 111 395 111c160 0 290 -42 388 -126c99 -83 158 -197 175 -339l-302 -28c-15 86 -46 148 -91 188c-46 38 -106 58 -181 59c-83 -1 -160 -28 -232 -79C644 1117 587 1035 544 925S480 705 480 596c0 -121 28 -214 85 -279c56 -66 127 -98 211 -98c79 0 150 24 215 76c66 49 114 125 147 226z"/><glyph unicode="a" horiz-adv-x="1138" d="M480 768L206 792c32 94 90 169 171 223s189 81 323 82c141 -1 243 -29 310 -84c67 -57 101 -124 101 -203c0 -33 -3 -67 -10 -103c-7 -37 -29 -132 -67 -286C1003 292 987 202 987 152c0 -47 12 -97 34 -152H740C726 38 716 77 713 119C670 72 620 36 564 10C508 -15 452 -27 394 -27C304 -27 230 1 171 59S82 193 82 285c0 102 34 185 99 246c65 62 182 99 350 113c143 10 237 24 285 42c13 39 20 71 20 96c0 30 -13 56 -40 77c-26 21 -66 31 -119 32C621 890 578 879 545 859C513 836 492 806 480 768zM773 507c-17 -6 -41 -10 -72 -13C550 475 452 449 405 415C373 389 356 356 356 314c0 -35 13 -64 38 -87c26 -24 58 -36 100 -35c45 -1 88 9 127 32c41 21 71 49 90 84c21 33 38 86 53 160l9 39z"/><glyph unicode="e" horiz-adv-x="1138" d="M1105 452H398c-1 -12 -2 -21 -2 -26c0 -71 20 -128 60 -171c40 -42 89 -64 146 -63c94 -1 168 45 221 137l246 -55C1021 173 955 97 872 47C790 -3 698 -27 596 -27C457 -27 343 17 255 109C168 200 123 320 123 471c0 147 41 278 120 393c107 154 263 232 463 233c128 -1 230 -41 305 -121c76 -81 113 -193 113 -337c0 -70 -6 -133 -19 -187zM850 631c1 10 1 19 1 26c0 72 -16 127 -50 165c-33 36 -78 55 -134 55S561 855 517 814C472 772 442 711 426 631H850z"/><glyph unicode="g" horiz-adv-x="1248" d="M55 -55L329 -98c0 -30 7 -52 19 -67c13 -16 33 -29 62 -39c28 -10 66 -15 114 -15c66 0 118 12 157 36c29 18 53 48 72 89c12 25 27 83 44 170l10 50C702 41 593 0 481 0C376 0 290 36 224 110C157 183 123 291 123 434c0 125 24 240 69 344c45 105 110 183 192 237s166 81 252 82c70 -1 134 -20 192 -58c58 -37 103 -90 134 -157l39 187h266L1099 183C1069 40 1043 -61 1021 -122c-20 -61 -44 -109 -72 -144c-26 -36 -60 -67 -102 -91c-41 -24 -89 -42 -146 -53c-56 -10 -117 -15 -183 -15c-153 0 -269 25 -348 75C91 -299 51 -215 51 -97c0 12 2 27 4 42zM398 467c0 -81 18 -143 56 -185c38 -43 86 -63 142 -63c52 0 102 18 150 56c47 38 84 92 110 162c26 69 38 137 38 203c0 75 -21 135 -63 182c-42 45 -91 68 -145 69C632 890 584 870 540 829C495 788 459 727 430 643C409 576 398 518 398 467z"/></font><font horiz-adv-x="1" id="F1"><font-face units-per-em="2048" font-family="F1" font-weight="700" font-size="82" font-style="italic"/><glyph unicode="0" horiz-adv-x="1135" d="M123 480c0 146 25 296 74 450c62 185 141 322 236 413c96 90 202 136 320 138c118 -2 216 -45 293 -131c77 -88 114 -213 114 -377c0 -152 -28 -313 -83 -479C1021 325 947 197 851 108C757 19 651 -25 531 -25C413 -25 316 17 239 103C162 190 123 315 123 480zM395 416c0 -83 14 -140 40 -171c26 -34 60 -49 100 -48c56 -1 105 24 148 76c57 65 108 197 151 398c37 157 54 282 54 375c0 74 -12 128 -40 162c-26 32 -60 49 -101 51c-53 -2 -101 -27 -141 -76C546 1109 494 983 450 802C413 642 395 514 395 416z"/><glyph unicode="6" horiz-adv-x="1135" d="M1135 1109L864 1086c-5 62 -17 106 -37 133c-19 24 -47 38 -80 40c-44 -2 -81 -22 -115 -61C585 1140 546 1049 517 925c61 41 125 61 191 62C819 986 908 946 979 868S1086 683 1086 551c0 -108 -25 -210 -74 -304C962 151 899 83 825 40S671 -25 588 -25C507 -25 437 -5 372 35C308 76 259 136 225 216c-34 79 -52 185 -52 319c0 262 55 485 165 670c111 182 256 274 436 276c105 -2 187 -33 249 -93c61 -62 98 -156 112 -279zM444 416c0 -77 16 -132 45 -166c29 -37 65 -54 108 -53c55 -1 102 24 139 76c52 66 78 157 78 275c0 72 -13 126 -43 163c-28 34 -63 53 -106 54C631 764 595 750 558 723C523 696 495 652 475 594C455 535 444 475 444 416z"/><glyph unicode="-" horiz-adv-x="691" d="M123 666H666L617 395H74l49 271z"/><glyph unicode="J" horiz-adv-x="1135" d="M953 1481h278L1038 583C990 344 927 184 848 100C770 15 649 -25 486 -25C349 -25 245 6 177 71C110 134 74 222 74 335c0 21 2 48 5 78l273 31c-3 -32 -6 -57 -6 -75c0 -50 13 -85 40 -110c27 -26 69 -38 125 -37c78 -1 134 22 165 68c24 32 52 130 86 293l191 898z"/><glyph unicode="u" horiz-adv-x="1259" d="M330 1086H606L458 452C441 375 432 327 432 310c0 -32 12 -59 35 -80c23 -23 53 -34 88 -33c28 -1 54 4 79 13c25 7 51 21 77 40c28 18 51 38 73 63c21 22 40 54 58 94c14 26 28 76 42 147l112 532h277L1041 0H767l34 157C686 34 560 -25 424 -25C339 -25 271 0 222 49C173 99 148 165 148 250c0 37 14 112 40 227l142 609z"/><glyph unicode="l" horiz-adv-x="568" d="M74 0L390 1481H668L350 0H74z"/><glyph unicode="2" horiz-adv-x="1135" d="M518 1012l-271 43c23 136 75 241 159 315c83 72 188 109 313 111c137 -2 245 -39 324 -113c78 -74 117 -168 117 -281c0 -58 -12 -117 -37 -175C1098 853 1058 791 1003 730C962 683 898 619 807 537C717 453 657 396 628 367C598 336 571 304 543 271h518L1012 0H99c9 71 31 139 64 205c34 65 78 127 129 184c50 55 143 148 277 274c102 94 167 156 193 187c49 51 82 96 100 136c19 37 26 72 26 104c0 48 -15 88 -46 121c-31 31 -69 46 -117 48c-48 -2 -90 -20 -127 -56c-35 -37 -61 -100 -80 -191z"/><glyph unicode="1" horiz-adv-x="1135" d="M222 864l49 247c235 104 415 228 543 370h198L696 0H420L639 1030C580 992 511 958 432 927C355 896 284 875 222 864z"/><glyph unicode="5" horiz-adv-x="1135" d="M123 418l272 26c0 -15 -2 -26 -2 -32c0 -74 17 -128 48 -162c31 -37 71 -54 120 -53c71 -1 135 31 192 96c58 63 86 153 86 267c0 66 -17 117 -51 153c-34 34 -80 51 -139 52C609 764 569 754 531 739C494 722 457 697 420 666L197 683l223 773h765l-50 -271H622L554 944c27 12 57 23 85 31c27 6 55 11 83 12c114 -1 207 -40 279 -114c74 -76 110 -176 110 -299c0 -102 -25 -201 -74 -298C987 177 918 103 828 52C739 0 646 -25 549 -25C426 -25 325 14 245 94S125 282 123 418z"/><glyph unicode="P" horiz-adv-x="1357" d="M375 0H99L416 1481H993c104 -2 185 -14 244 -39c60 -26 108 -68 142 -125c35 -58 52 -128 52 -208c0 -76 -14 -148 -43 -217C1360 821 1325 764 1283 722c-41 -43 -86 -74 -134 -96C1101 603 1037 586 955 577C908 569 819 566 689 568H497L375 0zM549 814h97c167 -1 278 8 333 28c56 19 101 51 133 96c32 43 48 91 48 145c0 34 -8 61 -25 85c-15 21 -38 38 -69 49c-29 9 -96 15 -199 17H640L549 814z"/><glyph unicode="r" horiz-adv-x="790" d="M304 1086H580L540 898c99 140 203 211 318 213c40 -2 83 -13 129 -31L864 848c-26 10 -54 14 -85 16C730 862 680 842 628 804C575 764 535 710 506 645C478 578 449 475 421 335L350 0H74L304 1086z"/><glyph unicode="o" horiz-adv-x="1259" d="M123 450c0 199 57 360 169 480c111 119 257 179 439 181c157 -2 281 -47 370 -135c90 -89 133 -206 133 -354c0 -178 -56 -330 -167 -457C956 37 808 -25 622 -25C521 -25 432 -5 355 35C278 76 219 133 180 208c-37 74 -57 156 -57 242zM962 657c0 68 -20 123 -63 167c-43 41 -97 63 -165 64C668 887 609 867 557 828C506 788 466 731 438 657C410 581 395 512 395 450c0 -78 23 -140 66 -185c45 -46 100 -69 167 -68c85 -1 156 33 211 104c83 95 123 214 123 356z"/><glyph unicode="d" horiz-adv-x="1259" d="M1066 0H790l24 119C764 66 713 29 662 8C612 -14 555 -25 492 -25C383 -25 293 12 225 89C157 165 123 278 123 429c0 173 50 328 148 470c99 139 229 210 389 212c147 -2 256 -62 329 -181l117 551h278L1066 0zM395 441c0 -79 20 -139 58 -180c41 -44 88 -65 145 -64c54 -1 104 16 150 53c46 35 83 91 111 165c28 72 42 143 42 214c0 76 -20 138 -63 187c-44 46 -93 71 -149 72C603 887 534 839 478 747C423 651 395 549 395 441z"/><glyph unicode="c" horiz-adv-x="1135" d="M790 370l271 -40C1016 213 950 123 861 65C773 3 671 -25 555 -25C423 -25 318 14 241 97C163 179 123 293 123 438c0 117 25 228 71 333c47 104 118 185 212 247c95 60 199 91 311 93c124 -2 221 -36 295 -102c74 -68 114 -158 123 -266L864 716c-6 57 -25 100 -54 129c-30 28 -68 42 -116 43C640 887 589 865 541 824C495 780 458 716 433 632C409 548 395 469 395 398c0 -66 15 -116 46 -150c31 -35 68 -52 114 -51c47 -1 91 13 134 42c44 28 76 73 101 131z"/><glyph unicode="t" horiz-adv-x="691" d="M123 864l50 222H341l32 148l318 197L617 1086H814L765 864H569L470 403C450 318 440 270 440 261c0 -25 9 -42 24 -54c17 -13 47 -19 90 -17c15 -2 52 1 112 7L617 -11C565 -20 511 -25 455 -25C349 -25 271 -6 222 32c-49 37 -74 93 -74 164c0 31 17 106 48 227l96 441H123z"/><glyph unicode=" " horiz-adv-x="568" d=""/><glyph unicode="N" horiz-adv-x="1481" d="M1239 0H962L575 1012L375 0H99L416 1481H693L1080 469l200 1012h276L1239 0z"/><glyph unicode="a" horiz-adv-x="1135" d="M469 765L197 788c34 99 91 178 173 236c83 56 191 85 326 87c142 -2 246 -31 314 -87c68 -57 101 -125 101 -203c0 -34 -4 -70 -10 -107S1072 580 1033 426C1003 295 987 204 987 154c0 -48 12 -98 36 -154H740C728 37 719 76 716 119C672 71 622 35 565 11C507 -14 450 -25 392 -25C299 -25 224 3 163 62C105 120 74 196 74 290c0 102 34 184 100 245c67 62 185 99 355 114c145 10 241 23 290 42c14 37 20 68 20 93c0 27 -14 52 -42 74c-27 18 -69 29 -125 30C615 887 571 876 537 855C503 833 481 802 469 765zM776 518c-19 -6 -43 -11 -76 -14C546 484 444 458 396 424C362 396 346 362 346 322c0 -37 13 -66 38 -89c26 -25 60 -37 102 -36c48 -1 92 10 134 33c42 21 73 49 93 85c21 34 38 88 54 163l9 40z"/><glyph unicode="m" horiz-adv-x="1826" d="M304 1086H580L546 930c105 119 213 179 327 181c79 -2 139 -21 182 -56c43 -37 69 -86 82 -148c37 55 88 103 156 143c67 39 137 59 209 61c84 -2 148 -27 195 -76c46 -49 69 -114 69 -194c-6 -37 -20 -99 -40 -187L1584 0H1308l140 651c19 80 28 126 30 139c0 29 -8 52 -27 71c-18 17 -44 26 -80 27c-71 -1 -136 -40 -193 -114C1138 719 1103 622 1072 484L967 0H691L830 646c15 73 23 121 23 145c0 26 -9 50 -28 68c-18 19 -43 28 -77 29c-29 -1 -60 -10 -92 -29C623 839 595 813 571 780C546 747 526 705 507 654C498 629 480 574 453 490L350 0H74L304 1086z"/><glyph unicode="e" horiz-adv-x="1135" d="M1115 444H395c0 -12 -2 -21 -2 -24c0 -68 22 -122 64 -162c41 -42 92 -62 151 -61c98 -1 176 48 231 149l247 -50C1037 188 969 106 885 54C802 0 710 -25 605 -25C463 -25 347 20 258 113C168 204 123 325 123 480c0 146 40 277 121 395c109 155 265 234 467 236c130 -2 233 -44 310 -127S1135 785 1135 637c0 -74 -6 -137 -20 -193zM864 617c0 11 0 20 0 29c0 79 -17 139 -51 181c-34 40 -80 60 -139 61C615 887 565 864 518 819C472 773 441 705 424 617H864z"/><glyph unicode=":" horiz-adv-x="691" d="M370 1061H642L592 790H321l49 271zM197 271H469L420 0H148l49 271z"/><glyph unicode="U" horiz-adv-x="1481" d="M418 1481H694L521 671L480 475c-3 -18 -8 -40 -14 -68c0 -55 23 -100 69 -134c46 -35 113 -52 199 -51c79 -1 144 12 195 40c52 26 91 68 118 124c28 54 57 146 85 279l174 816h277L1404 639C1370 475 1328 350 1282 264C1235 177 1166 106 1074 54C981 0 862 -25 719 -25C549 -25 420 15 329 99C238 182 191 290 191 423c6 24 13 52 19 84c6 21 18 81 38 182l170 792z"/><glyph unicode="n" horiz-adv-x="1259" d="M304 1086H580L546 925c69 65 134 112 194 141c61 28 124 43 190 45c90 -2 160 -30 211 -84c51 -55 76 -126 76 -216c-6 -37 -22 -108 -45 -209L1041 0H765L895 602c20 87 32 141 35 162c0 37 -11 67 -34 91c-21 21 -54 32 -94 33C759 887 711 868 657 834C605 797 561 751 531 694C506 651 477 566 443 440L350 0H74L304 1086z"/><glyph unicode="i" horiz-adv-x="568" d="M390 1481H668L615 1234H338l52 247zM305 1086H583L350 0H74L305 1086z"/><glyph unicode="s" horiz-adv-x="1135" d="M25 322l271 48C324 305 359 259 399 234c42 -26 98 -38 169 -37c74 -1 132 13 175 41c31 17 47 40 47 67c0 17 -8 34 -23 51c-16 14 -57 33 -127 56C458 469 344 515 299 551C231 603 197 672 197 759c0 83 33 157 95 222c89 85 220 128 394 130c139 -2 243 -30 313 -82c71 -56 118 -128 136 -219L864 765c-14 36 -37 63 -70 85c-43 25 -94 37 -155 38C578 887 535 878 509 861C483 842 469 822 469 801c0 -25 14 -45 40 -62c19 -13 72 -31 163 -57C816 639 912 598 959 560c68 -59 102 -127 102 -205C1061 251 1018 162 932 88C845 11 722 -25 563 -25C406 -25 285 3 199 65C114 125 56 211 25 322z"/><glyph unicode="I" horiz-adv-x="568" d="M74 0L392 1481H668L350 0H74z"/><glyph unicode="S" horiz-adv-x="1357" d="M123 430l272 14c4 -78 20 -131 48 -157c46 -45 131 -66 253 -65c103 -1 177 16 223 53c47 33 68 78 68 131c0 43 -18 80 -55 111c-25 21 -96 57 -212 108C605 674 520 716 467 750c-52 32 -94 75 -125 129c-30 53 -46 116 -46 190c0 123 45 228 133 311c88 82 214 124 381 125c169 -1 302 -43 395 -126c92 -83 143 -194 152 -330l-271 -12c-8 69 -34 123 -79 163c-45 37 -111 57 -199 59c-86 -2 -148 -17 -185 -47s-55 -66 -55 -109s17 -79 47 -105C649 969 722 930 833 882c170 -74 276 -134 322 -177c70 -70 104 -156 104 -259c0 -131 -50 -242 -152 -333C1007 20 867 -25 688 -25C565 -25 458 -6 367 32C278 69 213 123 176 193c-37 68 -56 146 -53 237z"/><glyph unicode="k" horiz-adv-x="1135" d="M74 0L390 1481H668L501 706l387 380h371L842 703L1061 0H777L625 504L418 315L350 0H74z"/><glyph unicode="g" horiz-adv-x="1259" d="M45 -74l276 -32c0 -24 8 -41 20 -51c14 -13 35 -22 66 -30c31 -7 71 -10 124 -10c66 0 118 10 158 32c30 17 54 45 73 83c12 25 26 77 43 159l12 49C710 40 597 0 481 0C376 0 292 35 224 111C157 185 123 295 123 440c0 125 24 240 70 347c46 105 109 185 193 240c83 54 168 82 254 84c74 -2 140 -22 201 -59c61 -39 108 -91 142 -157l41 191h276L1104 179C1074 37 1049 -62 1027 -120c-21 -60 -44 -108 -72 -144c-28 -35 -62 -65 -104 -89c-40 -25 -89 -42 -146 -51c-56 -11 -117 -16 -184 -16c-157 0 -277 24 -358 71C83 -302 42 -224 42 -113c0 11 1 24 3 39zM395 467c0 -81 20 -143 58 -183c39 -43 87 -63 145 -62c54 -1 107 17 156 56c51 37 90 89 116 160c28 68 40 136 40 202c0 73 -22 133 -68 179c-45 45 -97 68 -156 69C634 887 585 867 540 827C495 785 458 723 427 642C406 575 395 517 395 467z"/><glyph unicode="3" horiz-adv-x="1135" d="M74 384l272 36c12 -87 35 -145 67 -176c33 -33 76 -48 128 -47c71 -1 131 20 178 67c48 44 71 103 71 176c0 60 -19 109 -59 146c-40 36 -92 54 -160 56c-17 -2 -34 -3 -53 -5l57 228c11 -3 22 -3 31 -1c85 -2 150 18 193 61c43 41 65 98 65 170c0 49 -14 88 -42 119c-28 28 -63 43 -109 45c-44 -2 -81 -19 -115 -53c-33 -34 -60 -91 -80 -169l-271 57c34 108 80 192 139 254c91 86 202 131 334 133c136 -2 239 -40 310 -114c71 -78 105 -167 105 -270c0 -79 -21 -148 -65 -210C1027 825 969 780 895 753c57 -34 98 -77 126 -128c28 -53 40 -108 40 -164C1061 352 1023 251 944 162C839 35 702 -25 534 -25C407 -25 304 9 222 80C142 151 93 251 74 384z"/></font><font horiz-adv-x="1" id="F2"><font-face units-per-em="2048" font-family="F2" font-weight="700" font-size="99" font-style="italic"/><glyph unicode="C" horiz-adv-x="1481" d="M1152 535l288 -48C1380 321 1290 195 1172 109C1054 22 915 -21 756 -21C577 -21 437 32 337 141C237 249 185 406 185 613c0 166 35 319 102 458c68 139 162 244 282 318c121 74 251 111 392 112c160 -1 290 -43 387 -126c98 -85 156 -198 174 -339l-288 -28c-15 85 -48 148 -94 187s-109 58 -186 60c-85 -2 -164 -27 -238 -79C643 1123 584 1042 540 932C496 821 473 711 473 603c0 -121 30 -215 87 -279c60 -67 132 -99 218 -98c82 -1 156 25 223 77s117 129 151 232z"/><glyph unicode="a" horiz-adv-x="1152" d="M494 740L206 765c33 100 92 180 174 238c84 56 195 86 331 87c144 -1 249 -30 317 -84c70 -56 103 -123 103 -201c0 -34 -2 -67 -9 -103c-6 -37 -29 -133 -68 -284C1023 289 1008 201 1008 150c0 -46 10 -96 31 -150H740C730 37 722 77 720 120C676 72 626 37 569 14C513 -9 455 -21 397 -21C307 -21 231 6 172 64C113 121 82 194 82 287c0 99 34 178 99 240c67 59 184 96 354 111c144 10 240 23 288 41c14 34 20 63 20 86c0 27 -13 50 -40 69c-25 18 -65 28 -117 30C632 862 589 851 558 830C527 808 505 779 494 740zM780 494c-18 -7 -41 -11 -70 -13C560 463 464 440 418 409C387 386 370 355 370 317c0 -33 13 -60 37 -80c25 -22 57 -33 98 -31c45 -2 88 7 126 28c40 19 70 45 89 77c19 31 36 80 51 147l9 36z"/><glyph unicode="t" horiz-adv-x="679" d="M144 843l62 226H341l36 165l331 206L634 1069H823L761 843H587L499 405C481 324 472 279 472 269c0 -23 7 -41 23 -53c15 -13 42 -19 81 -18c14 -1 49 1 103 8L617 -6C567 -17 515 -21 461 -21C359 -21 283 -3 235 36c-46 37 -70 91 -70 161c0 31 15 106 45 226l86 420H144z"/><glyph unicode="e" horiz-adv-x="1152" d="M1131 452H411c0 -12 -1 -20 -1 -24c0 -68 21 -122 60 -162c42 -41 90 -62 148 -60c97 -2 171 46 225 144l247 -62C1040 184 973 107 888 55C805 4 711 -21 607 -21C464 -21 348 23 258 113S123 323 123 472c0 144 42 274 123 388c111 152 269 229 475 230c132 -1 238 -41 315 -121S1152 778 1152 636c0 -69 -7 -131 -21 -184zM864 638c0 9 0 16 0 24c0 66 -16 116 -49 150c-34 34 -78 50 -135 52C625 862 575 843 531 806C487 767 456 711 440 638H864z"/><glyph unicode="g" horiz-adv-x="1255" d="M35 -82l294 -32c0 -24 6 -40 19 -52c13 -11 35 -20 63 -28c30 -8 70 -12 120 -12c64 0 116 12 153 35c29 17 53 45 71 86c11 25 25 79 42 163l11 49C703 41 595 0 483 0C378 0 292 35 225 109C158 181 123 289 123 431c0 123 24 237 69 342c46 102 110 182 192 236c83 53 167 80 252 81c71 -1 135 -19 193 -55C888 997 933 946 965 882l39 187h293L1113 183C1082 39 1055 -63 1035 -125c-21 -61 -45 -112 -74 -147c-28 -36 -63 -67 -105 -92c-41 -24 -91 -42 -149 -52c-57 -11 -120 -16 -186 -16c-161 0 -283 23 -365 71C73 -314 32 -234 32 -122c0 11 1 24 3 40zM411 460c0 -77 18 -136 54 -175c36 -41 83 -60 137 -59c51 -1 100 17 147 53c48 36 84 86 110 153c25 65 37 130 37 194c0 69 -21 127 -64 171s-93 65 -149 67C634 862 587 843 546 805C505 766 470 707 442 627C422 564 411 509 411 460z"/><glyph unicode="o" horiz-adv-x="1255" d="M123 445c0 195 56 351 165 469c110 116 254 175 432 176c155 -1 276 -45 364 -131c87 -88 129 -203 129 -347c0 -172 -54 -322 -163 -446C942 40 796 -21 613 -21C515 -21 428 -1 351 39C274 77 217 134 180 208c-37 72 -57 152 -57 237zM925 644c0 64 -19 117 -57 158c-39 40 -88 60 -149 62C659 862 605 843 559 806C513 767 476 713 450 643C424 571 411 506 411 447c0 -76 21 -135 61 -177c40 -44 90 -66 150 -64c77 -2 142 31 193 97c74 93 110 206 110 341z"/><glyph unicode="r" horiz-adv-x="802" d="M305 1069H598L558 878c98 140 204 211 319 212c41 -1 84 -12 131 -31L884 829c-25 8 -54 13 -83 14C752 842 702 823 650 785C599 747 559 697 531 635C503 571 473 472 445 335L375 0H82L305 1069z"/><glyph unicode="y" horiz-adv-x="1152" d="M185 1069H476L544 536C562 398 573 302 580 247c36 103 91 213 164 331l243 491h319L596 -123C545 -216 504 -280 474 -316c-29 -36 -65 -64 -106 -85c-42 -21 -93 -31 -152 -31c-58 0 -123 10 -195 31l20 209c34 -10 67 -14 98 -14c85 0 155 68 211 206L185 1069z"/><glyph unicode=":" horiz-adv-x="679" d="M391 1069H679L617 781H329l62 288zM206 288H494L432 0H144l62 288z"/></font><font horiz-adv-x="1" id="F3"><font-face units-per-em="2048" font-family="F3" font-weight="700" font-size="99"/><glyph unicode="B" horiz-adv-x="1481" d="M144 1481H748c121 -2 210 -7 269 -16c59 -10 110 -31 157 -61c46 -33 86 -75 116 -126c31 -53 47 -111 47 -175c0 -71 -18 -135 -54 -193C1247 851 1199 807 1138 779c83 -27 147 -72 192 -134c47 -64 68 -137 68 -221c0 -67 -15 -132 -47 -195C1320 165 1276 114 1221 78C1167 40 1099 17 1018 9C968 3 846 0 653 0H144V1481zM432 1234V884H640c126 -1 203 0 233 5c55 6 99 22 130 53c30 30 46 70 46 120c0 45 -13 82 -40 112c-27 28 -67 47 -121 55c-31 2 -122 4 -274 5H432zm0 -596V247H729c115 -1 189 1 220 9c48 6 87 25 117 56s45 72 45 126c0 43 -12 80 -35 111c-23 29 -57 51 -100 67c-44 13 -139 20 -286 22H432z"/><glyph unicode="e" horiz-adv-x="1152" d="M761 350l288 -42C1013 199 955 117 877 62C798 5 699 -21 581 -21C396 -21 257 39 167 161C98 256 62 377 62 526c0 175 47 313 140 414c94 99 212 149 355 150c160 -1 286 -54 379 -158c92 -106 137 -265 133 -480H350c2 -79 24 -140 68 -182c43 -44 99 -66 163 -64c44 -2 81 10 112 33c31 22 53 59 68 111zm20 267c-2 80 -23 140 -64 182s-90 63 -149 65C506 862 455 841 414 797C374 751 355 692 355 617H781z"/><glyph unicode="v" horiz-adv-x="1111" d="M424 0L10 1069H298L488 523L545 341c15 45 24 75 27 91c9 29 18 60 28 91l192 546h288L670 0H424z"/><glyph unicode="r" horiz-adv-x="802" d="M432 0H144V1069H432V918c41 69 77 115 110 139c34 20 70 32 111 33c59 -1 116 -22 170 -60L751 756c-47 29 -92 45 -133 46c-38 -1 -70 -12 -99 -32C492 748 470 711 455 657C440 602 432 487 432 315V0z"/><glyph unicode="a" horiz-adv-x="1152" d="M350 720L103 761c28 110 76 193 144 247c69 54 171 81 304 82c123 -1 214 -17 273 -46c60 -31 103 -68 127 -113c25 -47 36 -132 36 -252V350c0 -95 7 -165 18 -209c12 -45 34 -92 64 -141H781c-7 21 -16 53 -26 98c-6 18 -8 31 -11 38C697 82 645 44 590 18C536 -8 477 -21 415 -21C306 -21 220 6 157 66C94 122 62 195 62 285c0 57 14 110 41 156c28 45 67 80 117 105c50 23 122 45 214 65c129 23 216 45 265 68v28c0 55 -11 95 -37 119c-24 24 -72 36 -141 38C474 862 438 851 413 830C387 808 365 771 350 720zM699 452C666 442 613 431 541 419C469 406 423 395 400 384C366 364 350 339 350 311c0 -30 14 -54 41 -74c27 -22 61 -33 103 -31c46 -2 91 10 133 36c31 18 52 39 62 68c8 16 10 50 10 101v41z"/><glyph unicode="g" horiz-adv-x="1255" d="M123 -62l329 -41c6 -36 16 -62 34 -74c26 -20 64 -29 118 -29c70 0 121 11 154 34c23 15 40 40 52 73c9 23 13 68 13 134V195C733 64 626 0 503 0C366 0 257 59 176 181C114 276 82 395 82 539c0 177 41 313 124 408c82 94 185 142 307 143c127 -1 230 -62 310 -183v162h288V111c0 -126 -11 -222 -31 -283c-21 -63 -49 -112 -86 -147c-36 -36 -87 -63 -148 -83c-62 -21 -139 -30 -234 -30c-178 0 -304 31 -378 94c-75 63 -112 144 -112 242c0 9 1 20 1 34zM370 549c0 -113 22 -194 63 -246s93 -78 154 -77c67 -1 123 25 168 79c46 52 68 131 68 236c0 108 -22 188 -66 242c-44 52 -98 79 -164 81C528 862 474 837 433 785S370 654 370 549z"/><glyph unicode="s" horiz-adv-x="1152" d="M21 329l287 41c13 -55 39 -96 78 -123c38 -28 92 -43 162 -41c77 -2 135 11 173 37c27 15 40 38 40 69c0 18 -6 35 -22 50c-14 11 -46 22 -98 35C406 442 257 486 193 528C105 584 62 663 62 766c0 90 38 166 113 229c74 62 190 94 347 95c150 -1 262 -30 335 -85C931 949 981 868 1008 761L720 720c-10 45 -31 79 -62 105c-29 25 -72 37 -128 39C460 862 410 852 379 834C360 819 350 802 350 781c0 -20 10 -35 28 -47c26 -19 114 -45 265 -76C794 626 900 586 959 539c60 -52 90 -120 90 -207C1049 234 1008 152 923 82C838 13 713 -21 548 -21C398 -21 279 9 192 72C104 134 48 220 21 329z"/><glyph unicode="C" horiz-adv-x="1481" d="M1090 555l288 -82C1334 311 1260 193 1156 116C1051 37 919 0 760 0C562 0 400 64 272 197C147 328 82 508 82 738c0 240 63 428 189 561c126 134 292 201 498 202c180 -1 326 -55 438 -160c67 -65 117 -156 150 -272l-288 -61c-18 74 -55 135 -111 180c-57 43 -126 65 -209 67C636 1253 545 1213 476 1136C406 1058 370 932 370 760C370 573 406 441 476 364C545 284 636 246 748 247c82 -1 154 23 213 73c60 49 103 127 129 235z"/><glyph unicode="o" horiz-adv-x="1255" d="M82 549c0 92 23 182 68 270c47 87 111 154 194 200c85 47 179 70 282 71c159 -1 290 -54 393 -158C1122 826 1172 695 1172 537c0 -162 -51 -295 -154 -401C915 31 784 -21 627 -21C531 -21 438 0 351 44C263 87 197 152 150 238C105 323 82 425 82 549zM370 535c0 -108 26 -189 75 -246c49 -56 110 -85 182 -83c74 -2 135 27 184 83c49 57 73 139 73 247c0 104 -24 185 -73 242c-49 56 -110 84 -184 86C555 862 494 834 445 778C396 721 370 640 370 535z"/><glyph unicode="n" horiz-adv-x="1255" d="M1111 0H823V537c0 112 -6 185 -17 219c-12 33 -31 59 -57 78c-25 18 -57 28 -95 30C608 862 567 848 530 823C492 796 467 761 452 717C440 674 432 593 432 477V0H144V1069H432V913c89 117 200 176 335 177c59 -1 115 -13 164 -35c48 -23 86 -52 111 -86c26 -36 43 -74 53 -118c10 -45 16 -108 16 -189V0z"/><glyph unicode="d" horiz-adv-x="1255" d="M1111 0H823V157C781 94 733 49 676 21C620 -8 563 -21 505 -21C389 -21 289 27 207 126C125 224 82 361 82 539s43 314 125 410c82 92 188 140 314 141c117 -1 217 -51 302 -149v540h288V0zM370 553c0 -112 16 -192 45 -241C459 240 521 204 598 206c63 -2 115 25 159 79c44 53 66 134 66 242c0 118 -21 203 -63 257c-43 51 -97 78 -164 80C532 862 479 837 436 785C392 733 370 656 370 553z"/><glyph unicode="i" horiz-adv-x="576" d="M144 1234v247H432V1234H144zM144 0V1069H432V0H144z"/><glyph unicode="m" horiz-adv-x="1830" d="M123 1069H411V923c89 110 194 166 317 167c65 -1 122 -17 169 -45c49 -31 88 -75 117 -134c48 59 98 103 152 134c54 28 112 44 172 45c78 -1 144 -18 198 -49c54 -33 95 -80 121 -139c20 -46 29 -121 29 -221V0H1398V602c0 102 -9 171 -28 201c-26 39 -64 59 -118 61c-37 -2 -73 -14 -107 -38c-33 -24 -58 -59 -73 -104c-15 -46 -23 -119 -23 -217V0H761V577c0 100 -4 166 -14 197c-10 29 -25 51 -45 67c-21 14 -48 21 -84 23C577 862 539 851 505 828C472 805 449 771 433 728C419 684 411 612 411 512V0H123V1069z"/><glyph unicode="t" horiz-adv-x="679" d="M679 1069V843H473V409c0 -89 3 -140 6 -154c4 -16 13 -27 29 -36c15 -11 32 -15 52 -13c31 -2 74 7 129 27L699 19C632 -8 555 -21 469 -21c-51 0 -99 8 -141 25C287 19 256 41 235 69c-19 27 -33 65 -41 111c-5 32 -9 99 -9 199V843H41v226H185v206l288 165V1069H679z"/><glyph unicode="f" horiz-adv-x="679" d="M41 1069H185v80c0 89 10 156 30 201c19 43 55 81 106 109c53 27 119 41 198 42c83 -1 164 -14 242 -38L730 1258c-47 11 -94 16 -137 17c-43 -1 -74 -10 -92 -28c-18 -19 -28 -54 -28 -106v-72H679V843H473V0H185V843H41v226z"/><glyph unicode="c" horiz-adv-x="1152" d="M1049 740L761 699c-8 53 -28 94 -59 122c-31 27 -71 41 -120 43C518 862 467 838 428 790S370 661 370 549c0 -126 21 -215 61 -266c39 -53 92 -79 159 -77c51 -2 93 14 123 45c33 30 56 83 68 160l288 -41C1041 239 987 141 907 77C828 10 720 -21 585 -21C432 -21 310 27 219 125C129 222 82 359 82 533c0 175 47 311 137 409c89 98 213 147 367 148c126 -1 228 -31 302 -87c75 -60 129 -147 161 -263z"/><glyph unicode="D" horiz-adv-x="1481" d="M144 1481H695c126 -2 221 -11 286 -29c87 -27 163 -73 225 -137c63 -67 110 -147 144 -240c33 -96 48 -211 48 -349c0 -123 -15 -229 -46 -316C1315 302 1261 215 1192 149C1140 98 1069 58 979 31C913 9 824 0 712 0H144V1481zM432 1234V247H671c90 -1 154 4 193 14c52 10 96 31 130 60s63 77 84 144c22 67 33 158 33 274c0 114 -11 203 -33 265c-21 62 -52 109 -91 144c-38 33 -89 58 -149 72c-44 8 -131 13 -262 14H432z"/><glyph unicode="y" horiz-adv-x="1090" d="M21 1069H308L545 312l236 757h288L707 49L639 -144c-23 -63 -45 -111 -66 -144c-20 -33 -43 -59 -70 -80c-27 -20 -61 -37 -99 -47c-39 -12 -84 -17 -134 -17c-49 0 -98 5 -147 17l-20 222c40 -9 76 -13 107 -13c59 0 101 20 129 58c29 39 49 88 65 148L21 1069z"/><glyph unicode=" " horiz-adv-x="576" d=""/><glyph unicode="P" horiz-adv-x="1378" d="M144 0V1481H631c185 -2 305 -9 360 -23c87 -24 159 -72 217 -147c59 -74 88 -171 88 -288c0 -92 -17 -170 -52 -231C1211 729 1167 680 1114 645C1062 609 1008 586 954 576C880 560 774 554 632 555H432V0H144zM432 1234V802H611c128 -1 214 6 258 23c44 16 77 40 101 75c26 33 38 72 38 118c0 54 -17 100 -52 136c-34 36 -78 59 -132 70c-39 5 -117 9 -235 10H432z"/><glyph unicode="u" horiz-adv-x="1255" d="M823 0V159C785 100 737 57 676 26C616 -5 551 -21 483 -21S353 -5 299 26C246 57 206 100 181 158c-24 57 -37 135 -37 237v674H432V586c0 -149 5 -240 15 -274c11 -33 29 -60 54 -78c27 -21 61 -30 101 -28c46 -2 88 11 124 38c38 26 63 58 76 97c14 38 21 132 21 284v444h288V0H823z"/><glyph unicode="G" horiz-adv-x="1604" d="M823 555V802h637V201C1398 141 1307 89 1189 45C1071 0 951 -21 829 -21C676 -21 542 10 427 75C312 139 226 231 168 352C112 472 82 603 82 746c0 151 32 286 97 406c64 118 158 210 281 276c95 48 212 72 352 73c183 -1 326 -40 428 -115c103 -78 170 -183 200 -317l-288 -61c-21 74 -62 135 -121 180c-59 43 -133 65 -223 67C675 1253 569 1211 490 1129C410 1044 370 920 370 757C370 578 411 445 491 357C572 269 677 225 808 226c66 -1 132 12 196 37c65 26 122 57 168 96V555H823z"/><glyph unicode="/" horiz-adv-x="576" d="M-6 0L343 1481H576L226 0H-6z"/><glyph unicode="l" horiz-adv-x="576" d="M144 0V1481H432V0H144z"/><glyph unicode="M" horiz-adv-x="1707" d="M123 0V1481H616L853 470l237 1011h494V0H1296l-11 1165L1022 0H685L422 1165L411 0H123z"/><glyph unicode="S" horiz-adv-x="1378" d="M82 473l288 21C388 400 423 332 477 289S604 225 694 226c98 -1 171 18 220 58c49 39 73 84 73 138c0 33 -10 61 -31 86c-20 23 -55 43 -106 61c-34 12 -113 34 -237 67C454 677 343 728 279 787C189 866 144 967 144 1086c0 75 21 144 62 211c41 65 101 116 178 152c77 33 171 51 281 52c179 -1 316 -41 406 -119c90 -80 137 -184 142 -313L925 1049c-11 72 -37 123 -77 157c-40 31 -100 47 -180 49c-81 -2 -145 -20 -192 -53c-29 -23 -44 -54 -44 -90s14 -66 42 -89C512 991 602 958 743 923C884 887 990 851 1058 815c68 -37 121 -87 159 -149c39 -64 58 -142 58 -234c0 -85 -23 -165 -69 -237C1159 121 1093 67 1006 32C922 -4 815 -21 688 -21C503 -21 360 19 260 104C161 188 102 311 82 473z"/></font><font horiz-adv-x="1" id="F4"><font-face units-per-em="2048" font-family="F4" font-size="74"/><glyph unicode="C" horiz-adv-x="1481" d="M1179 516l192 -50C1332 305 1260 182 1157 98C1054 12 929 -27 780 -27C626 -27 500 3 404 69C308 134 237 228 185 351C135 475 110 607 110 751c0 152 29 286 85 402c57 115 137 203 242 264c105 59 219 89 344 91c143 -2 263 -39 359 -115c97 -75 166 -181 204 -317l-192 -44c-33 106 -81 185 -143 236c-61 48 -140 74 -236 76c-110 -2 -201 -30 -274 -84C427 1203 375 1129 346 1037C317 944 302 848 302 752c0 -128 18 -240 53 -334C389 322 444 252 519 206c76 -48 156 -71 242 -69c106 -2 197 29 269 94c74 62 123 158 149 285z"/><glyph unicode="h" horiz-adv-x="1152" d="M137 0V1481H329V941c84 103 190 154 317 156c79 -2 147 -17 206 -48c58 -33 101 -76 125 -130c26 -57 38 -138 38 -240V0H823V674c0 89 -19 154 -57 195s-92 62 -163 63C552 931 502 917 456 889C411 860 379 823 358 776C339 728 329 663 329 581V0H137z"/><glyph unicode="a" horiz-adv-x="1152" d="M823 137C764 75 704 33 643 9C581 -15 516 -27 446 -27C329 -27 238 0 177 58C115 117 82 190 82 283c0 51 12 99 36 144c24 43 55 79 93 106c38 26 80 46 128 62c36 7 89 17 161 27c146 16 252 36 321 64c2 20 2 36 2 42c0 69 -16 117 -50 146c-45 38 -111 57 -201 58C490 931 428 915 389 888C350 859 320 809 302 740L110 768c17 73 43 133 80 181c38 47 91 83 161 108c72 24 153 38 245 40c93 -2 167 -14 225 -34c58 -23 99 -50 127 -83c27 -34 46 -75 56 -123c7 -34 11 -89 11 -165V458c0 -167 5 -273 12 -321c6 -48 22 -94 42 -137H877C850 38 831 82 823 137zm0 384C758 494 658 473 528 458C454 446 401 434 370 423C339 410 317 392 300 368S274 319 274 291c0 -46 19 -84 55 -111c36 -31 89 -45 159 -43c69 -2 131 12 186 43c54 27 94 67 118 116c20 36 29 91 29 165l2 60z"/><glyph unicode="i" horiz-adv-x="466" d="M137 1289v192H329V1289H137zM137 0V1069H329V0H137z"/><glyph unicode="3" horiz-adv-x="1152" d="M82 384l192 27C295 312 329 242 375 201c47 -45 110 -66 192 -64c96 -2 173 26 228 82c55 55 82 125 82 211c0 79 -27 144 -82 196c-55 51 -127 77 -212 78c-35 -1 -77 -8 -131 -18l21 164c14 -3 22 -5 29 -3c76 -2 144 17 204 58c60 39 89 101 89 185c0 63 -20 117 -65 161c-44 41 -101 63 -170 65c-68 -2 -125 -22 -171 -63c-45 -41 -74 -103 -87 -184l-192 28c22 120 72 212 150 281c79 67 177 101 294 103c82 -2 156 -21 224 -55c69 -36 120 -84 156 -144c36 -62 53 -125 53 -190S970 967 936 915C901 860 852 819 783 788C871 768 941 725 992 663c52 -63 77 -142 77 -235C1069 300 1021 192 925 105C829 15 708 -27 560 -27C428 -27 319 9 231 86C144 161 94 260 82 384z"/><glyph unicode="9" horiz-adv-x="1152" d="M110 356l192 28c13 -89 41 -153 82 -190c41 -40 94 -59 156 -57c55 -2 106 10 151 34c46 24 80 57 101 98c22 39 43 94 60 165c17 68 25 140 25 217c0 7 0 19 0 36C841 627 792 579 728 545C665 509 596 492 521 494C399 492 296 536 211 626C125 715 82 831 82 979c0 149 47 270 136 363c89 91 202 137 336 139c99 -2 188 -28 269 -79c80 -53 142 -127 183 -221c43 -96 63 -235 63 -415c0 -190 -20 -341 -61 -452C967 201 903 117 821 58C739 0 643 -27 531 -27C415 -27 319 3 243 72C170 137 125 233 110 356zM877 984c0 99 -25 180 -78 241c-53 59 -125 89 -215 91c-92 -2 -166 -34 -224 -97C303 1153 274 1069 274 968c0 -94 28 -169 81 -226c55 -58 128 -86 224 -84c88 -2 160 26 214 84c57 57 84 137 84 242z"/><glyph unicode="n" horiz-adv-x="1152" d="M137 0V1069H329V917c75 118 185 178 329 180c64 -2 122 -14 173 -36c53 -24 93 -55 118 -93c28 -37 45 -82 55 -132c7 -36 11 -96 11 -178V0H823V648c0 72 -7 125 -21 163c-14 36 -38 65 -74 87c-34 21 -75 33 -123 34C530 931 466 905 411 857C356 807 329 715 329 581V0H137z"/><glyph unicode="g" horiz-adv-x="1152" d="M110 -82l192 -28c6 -55 27 -92 58 -116c43 -33 101 -48 175 -48c82 0 144 15 187 48c44 32 73 79 87 137c10 34 14 110 14 226C746 45 650 0 533 0C389 0 279 51 201 158C122 264 82 391 82 542c0 101 19 195 53 282c35 86 86 153 153 201c68 46 147 70 236 72c120 -2 220 -57 299 -165v137h192V142c0 -168 -18 -288 -52 -356C929 -284 876 -339 802 -379c-72 -41 -163 -60 -271 -60c-127 0 -229 29 -308 88c-79 58 -117 149 -113 269zM274 555c0 -137 28 -236 79 -298c51 -63 117 -94 194 -92c79 -2 144 29 197 90c53 62 79 160 79 293c0 126 -26 222 -81 287c-55 63 -120 96 -197 97C470 931 406 898 353 836C302 771 274 679 274 555z"/><glyph unicode="1" horiz-adv-x="1152" d="M768 0H576V1153C533 1109 476 1068 406 1027C338 985 274 955 219 934v177c101 44 189 102 264 171c76 67 129 134 160 199H768V0z"/><glyph unicode="7" horiz-adv-x="1152" d="M110 1261v192h959V1297C977 1195 886 1063 797 900C708 735 638 569 588 398C554 274 531 142 521 0H329c2 113 26 250 72 413c48 161 115 317 201 468c85 149 178 276 275 380H110z"/><glyph unicode="r" horiz-adv-x="686" d="M137 0V1069H302V932c41 65 78 108 113 131c34 20 73 32 115 34c60 -2 121 -21 183 -57L651 872c-41 38 -84 59 -127 60C487 931 454 919 423 895C392 869 372 835 358 793C339 725 329 653 329 576V0H137z"/><glyph unicode="t" horiz-adv-x="576" d="M521 147L548 -12C499 -22 454 -27 413 -27c-65 0 -115 8 -151 29C226 22 201 48 187 82c-14 33 -22 105 -22 214V905H27v164H165v264l191 108V1069H521V905H356V283c0 -53 4 -86 9 -100c7 -15 15 -27 29 -34c14 -10 31 -14 55 -12c19 -2 43 2 72 10z"/><glyph unicode="e" horiz-adv-x="1152" d="M874 329l189 -27C1033 195 979 113 898 57C819 0 716 -27 591 -27C435 -27 312 19 219 117C129 213 82 348 82 524c0 180 47 321 139 422c93 99 213 149 360 151c144 -2 262 -52 353 -148c91 -97 135 -233 135 -407c0 -14 0 -30 -1 -48H274c7 -117 40 -206 98 -266c60 -62 134 -93 223 -91c67 -2 123 14 169 45c47 29 83 78 110 147zM274 658H877c-6 79 -30 139 -70 180c-58 62 -133 93 -226 94C497 931 427 905 368 857C312 805 281 740 274 658z"/><glyph unicode="u" horiz-adv-x="1152" d="M823 0V161C742 34 632 -27 492 -27C430 -27 374 -17 320 7C267 31 228 60 202 98c-25 36 -44 82 -55 137c-6 34 -10 91 -10 169v665H329V478c0 -96 3 -159 10 -190c12 -48 36 -86 72 -111c36 -28 81 -42 132 -40c55 -2 105 12 151 40c48 27 81 65 99 113c21 48 30 116 30 209v570h192V0H823z"/><glyph unicode="s" horiz-adv-x="1042" d="M82 329l192 27c10 -72 36 -126 79 -164c45 -38 105 -57 182 -55c79 -2 139 14 176 46c38 31 57 69 57 113c0 38 -21 67 -64 91c-29 14 -87 33 -174 59C413 476 327 506 272 531c-53 24 -94 60 -121 105c-28 43 -41 92 -41 147c0 46 12 91 32 134c21 41 50 75 86 103c27 20 65 37 113 53c48 14 98 22 151 24c82 -2 152 -14 214 -38c62 -26 108 -58 137 -99c31 -43 52 -98 62 -165L713 768c-7 49 -27 89 -62 120c-34 27 -82 43 -145 44C434 931 380 917 350 893C319 865 302 836 302 802c0 -24 6 -43 18 -58c14 -21 35 -34 62 -45c17 -8 64 -24 141 -44C638 619 723 590 778 569c57 -24 101 -57 134 -98c32 -43 48 -94 48 -156C960 252 943 194 908 141C874 86 823 45 758 15C692 -14 617 -27 533 -27C396 -27 291 0 219 62C147 120 103 209 82 329z"/><glyph unicode=" " horiz-adv-x="576" d=""/><glyph unicode="v" horiz-adv-x="1015" d="M377 0L27 1069H230L439 428c25 -72 48 -144 68 -215c16 54 38 121 65 203l211 653H987L641 0H377z"/><glyph unicode="6" horiz-adv-x="1152" d="M1042 1097L850 1069c-17 74 -39 129 -70 165c-50 53 -112 80 -187 82c-58 -2 -115 -17 -170 -46c-48 -41 -89 -99 -123 -175C266 1020 249 908 247 763c44 65 101 113 166 147c65 31 134 48 204 50C744 958 850 913 937 824c90 -90 132 -205 132 -346c0 -94 -20 -182 -61 -260C967 137 908 75 836 34S680 -27 588 -27C430 -27 303 26 204 137C105 247 55 432 55 689c0 283 55 490 164 622c96 111 225 168 386 170c122 -2 221 -36 298 -103c77 -69 124 -163 139 -281zM247 483c0 -63 15 -121 43 -176C319 250 356 207 404 180c48 -31 103 -45 168 -43c93 -2 168 28 223 89c55 58 82 141 82 247c0 98 -27 177 -82 235c-55 56 -130 85 -229 87C476 793 401 764 339 708C278 650 247 574 247 483z"/><glyph unicode="ô" horiz-adv-x="1152" d="M82 535c0 197 55 344 163 442c91 79 201 118 331 120c146 -2 264 -52 356 -148c93 -97 137 -231 137 -401c0 -140 -20 -248 -61 -327C967 141 908 79 829 36C752 -7 668 -27 576 -27C428 -27 310 19 219 117C129 213 82 351 82 535zm192 0c0 -136 29 -235 86 -300C418 168 490 135 576 137c86 -2 158 31 216 98c58 65 85 168 85 305c0 127 -27 224 -85 291C734 896 662 931 576 932C490 931 418 896 360 831C303 764 274 665 274 535zm302 836L452 1207H260l206 274H686L891 1207H699L576 1371z"/><glyph unicode="d" horiz-adv-x="1152" d="M823 0V147C758 29 660 -27 530 -27C447 -27 372 -5 302 41C233 87 178 154 141 240C103 324 82 422 82 533c0 106 19 202 53 291c35 86 88 153 158 201c72 46 151 70 237 72c65 -2 121 -17 171 -46c50 -31 91 -71 122 -115v545h192V0H823zM274 533c0 -134 28 -233 82 -298C411 168 476 135 550 137c76 -2 141 29 194 93c53 61 79 159 79 289c0 141 -26 244 -81 312C689 896 622 931 543 932C468 931 403 898 351 835C300 770 274 670 274 533z"/><glyph unicode="B" horiz-adv-x="1371" d="M165 0V1481H716c113 -2 204 -17 273 -47c68 -30 122 -75 159 -137c40 -61 59 -126 59 -192c0 -65 -18 -123 -52 -178C1121 871 1069 826 999 795c86 -29 151 -75 196 -137c44 -65 66 -140 66 -226c0 -72 -13 -137 -42 -195C1189 175 1153 129 1111 98C1069 63 1016 39 953 24C889 7 811 0 718 0H165zM356 850H677c87 -2 149 3 187 17c49 14 87 40 113 76c26 34 38 80 38 137c0 48 -12 92 -36 132c-24 37 -57 65 -102 80c-42 14 -118 22 -226 24H356V850zm0 -685H722c63 -2 107 0 131 6c45 7 83 19 114 40c30 19 54 46 73 84c21 36 29 79 29 130c0 55 -12 103 -39 146c-26 41 -63 70 -115 87c-50 17 -122 26 -216 28H356V165z"/><glyph unicode="l" horiz-adv-x="466" d="M137 0V1481H329V0H137z"/><glyph unicode="y" horiz-adv-x="1015" d="M137 -418l-27 159c36 -10 67 -15 94 -15c38 0 67 5 87 19c23 13 41 32 55 58c10 17 28 63 50 137c3 9 8 24 15 45L27 1069H228L439 506c27 -74 51 -150 72 -227c13 36 36 95 63 175l221 615H996L607 -21C564 -139 530 -219 506 -264C475 -326 439 -370 398 -398c-42 -27 -90 -41 -146 -41c-34 0 -72 7 -115 21z"/><glyph unicode="I" horiz-adv-x="576" d="M192 0V1481H384V0H192z"/><glyph unicode="p" horiz-adv-x="1152" d="M137 -411V1069H329V912c38 60 81 106 129 137s104 46 171 48c89 -2 168 -26 235 -72C932 977 984 910 1018 824c34 -87 51 -181 51 -282c0 -112 -18 -211 -58 -299C973 154 917 87 841 41C768 -5 689 -27 607 -27c-59 0 -113 13 -161 41C398 41 360 77 329 122V-411H137zM329 524c0 -133 27 -233 79 -294c53 -64 116 -95 192 -93c75 -2 140 31 195 96s82 166 82 307c0 128 -25 226 -78 293c-53 65 -117 98 -192 99C535 931 470 895 413 826C358 756 329 655 329 524z"/><glyph unicode="o" horiz-adv-x="1152" d="M82 535c0 197 55 344 163 442c91 79 201 118 331 120c146 -2 264 -52 356 -148c93 -97 137 -231 137 -401c0 -140 -20 -248 -61 -327C967 141 908 79 829 36C752 -7 668 -27 576 -27C428 -27 310 19 219 117C129 213 82 351 82 535zm192 0c0 -136 29 -235 86 -300C418 168 490 135 576 137c86 -2 158 31 216 98c58 65 85 168 85 305c0 127 -27 224 -85 291C734 896 662 931 576 932C490 931 418 896 360 831C303 764 274 665 274 535z"/><glyph unicode="f" horiz-adv-x="576" d="M192 0V905H27v164H192v115c0 72 7 125 21 163c18 46 51 84 97 115c48 29 110 44 189 46c51 -2 106 -8 168 -19L641 1333c-38 5 -74 9 -108 11c-55 -2 -93 -14 -115 -38c-22 -26 -34 -70 -34 -135V1069H576V905H384V0H192z"/><glyph unicode="L" horiz-adv-x="1152" d="M165 0V1481H356V165h741V0H165z"/><glyph unicode="k" horiz-adv-x="1042" d="M137 0V1481H329V691l393 378H987L572 670L1015 0H790L435 538L329 434V0H137z"/><glyph unicode="ö" horiz-adv-x="1152" d="M82 535c0 197 55 344 163 442c91 79 201 118 331 120c146 -2 264 -52 356 -148c93 -97 137 -231 137 -401c0 -140 -20 -248 -61 -327C967 141 908 79 829 36C752 -7 668 -27 576 -27C428 -27 310 19 219 117C129 213 82 351 82 535zm192 0c0 -136 29 -235 86 -300C418 168 490 135 576 137c86 -2 158 31 216 98c58 65 85 168 85 305c0 127 -27 224 -85 291C734 896 662 931 576 932C490 931 418 896 360 831C303 764 274 665 274 535zm28 672v191H494V1207H302zm384 0v191H877V1207H686z"/><glyph unicode="5" horiz-adv-x="1152" d="M82 384l192 27c14 -92 45 -162 93 -207c48 -46 111 -69 193 -67c103 -2 182 31 237 96c55 63 80 149 80 259c0 99 -24 180 -75 240c-51 58 -130 89 -236 91C500 821 446 805 404 775C363 744 329 704 302 658L110 686l164 767H987V1261H428L351 891c86 62 177 94 271 96C749 985 855 939 941 850c86 -91 128 -206 128 -346C1069 367 1030 249 951 153C855 31 725 -27 560 -27C425 -27 314 9 228 84C142 158 94 257 82 384z"/><glyph unicode="m" horiz-adv-x="1728" d="M137 0V1069H329V915c33 52 75 96 129 130c53 33 113 50 181 52c77 -2 141 -19 189 -53c48 -35 82 -83 101 -143c86 129 195 194 331 196c106 -2 188 -33 245 -91c58 -60 85 -151 85 -271V0H1398V670c0 70 -5 122 -17 154c-10 31 -31 57 -61 77c-31 19 -65 30 -107 31c-72 -1 -133 -27 -181 -77C984 804 960 725 960 619V0H768V691c0 79 -14 138 -43 180c-27 39 -75 60 -141 61C536 931 490 917 449 891C408 864 377 824 358 773S329 648 329 552V0H137z"/><glyph unicode="b" horiz-adv-x="1152" d="M329 0H137V1481H329V937c75 105 173 158 290 160c65 -2 127 -16 185 -41c58 -28 106 -65 144 -113c37 -50 68 -108 89 -175c22 -69 32 -142 32 -218C1069 365 1027 221 937 122C848 21 742 -27 619 -27C495 -27 399 29 329 146V0zm0 542c0 -127 17 -216 50 -270C434 180 506 135 598 137c76 -2 142 31 197 98c55 65 82 166 82 300c0 133 -25 235 -78 300c-53 63 -117 96 -192 97C531 931 466 896 411 831C356 763 329 667 329 542z"/><glyph unicode="j" horiz-adv-x="466" d="M137 1289v192H329V1289H137zM-94 -420l34 160c38 -11 65 -14 86 -14c37 0 67 12 84 36c19 24 27 84 27 183V1069H329V-63c0 -132 -17 -223 -53 -275C231 -406 156 -439 51 -439c-49 0 -97 5 -145 19z"/><glyph unicode="c" horiz-adv-x="1042" d="M850 384l192 -28C1021 235 970 141 888 74C805 5 703 -27 583 -27C432 -27 312 19 219 115C129 211 82 348 82 530c0 114 21 216 59 303c39 86 99 152 178 197c80 43 168 65 260 67c119 -2 214 -31 290 -88C944 951 994 871 1015 768L823 740c-18 62 -47 108 -89 143c-42 30 -93 48 -155 49C490 931 416 898 360 835C303 770 274 670 274 535c0 -141 29 -244 84 -305c57 -64 129 -95 218 -93c74 -2 134 17 182 58c47 40 78 103 92 189z"/><glyph unicode="2" horiz-adv-x="1152" d="M1042 192V0H55c0 45 5 87 19 130c24 69 63 136 115 201c53 65 131 137 234 219C584 684 692 788 744 862c53 72 79 142 79 213c0 65 -24 121 -74 169c-50 46 -115 70 -195 72c-84 -2 -151 -26 -203 -73c-51 -50 -77 -117 -77 -201L82 1069c14 132 60 233 143 305c82 69 193 105 332 107c141 -2 252 -41 334 -119s124 -176 124 -289c0 -60 -11 -118 -33 -173C960 841 924 781 872 720C821 656 732 572 605 468C495 377 425 317 392 286C360 254 332 223 310 192h732z"/><glyph unicode="O" horiz-adv-x="1590" d="M110 720c0 245 65 437 192 577c126 139 291 209 493 211c134 -2 252 -34 358 -99c107 -67 189 -158 244 -274c56 -119 84 -251 84 -398c0 -153 -29 -288 -88 -405C1335 213 1251 123 1143 63C1037 2 920 -27 795 -27C662 -27 540 3 434 72C327 139 247 231 192 348C137 464 110 588 110 720zm192 -2C302 536 350 394 442 291C535 187 653 135 793 137c144 -2 264 50 357 156c93 103 139 252 139 446c0 120 -19 224 -60 317c-40 89 -98 159 -175 211c-75 49 -161 75 -257 77C662 1342 545 1294 447 1198C351 1100 302 941 302 718z"/><glyph unicode="R" horiz-adv-x="1481" d="M165 0V1481H804c128 -2 226 -16 293 -41c67 -28 120 -74 159 -139c41 -67 60 -141 60 -220c0 -104 -32 -192 -99 -262C1152 747 1049 703 910 686c48 -30 84 -55 108 -79c51 -59 103 -125 151 -197L1414 0H1195L1004 314C949 403 903 471 867 519s-68 79 -97 96c-28 16 -57 28 -88 36c-20 4 -56 5 -106 7H356V0H165zM356 823H764c89 -2 158 6 208 25c49 17 87 48 113 89c27 42 39 86 39 136c0 68 -24 127 -75 173c-50 44 -129 68 -238 70H356V823z"/><glyph unicode="ä" horiz-adv-x="1152" d="M823 137C764 75 704 33 643 9C581 -15 516 -27 446 -27C329 -27 238 0 177 58C115 117 82 190 82 283c0 51 12 99 36 144c24 43 55 79 93 106c38 26 80 46 128 62c36 7 89 17 161 27c146 16 252 36 321 64c2 20 2 36 2 42c0 69 -16 117 -50 146c-45 38 -111 57 -201 58C490 931 428 915 389 888C350 859 320 809 302 740L110 768c17 73 43 133 80 181c38 47 91 83 161 108c72 24 153 38 245 40c93 -2 167 -14 225 -34c58 -23 99 -50 127 -83c27 -34 46 -75 56 -123c7 -34 11 -89 11 -165V458c0 -167 5 -273 12 -321c6 -48 22 -94 42 -137H877C850 38 831 82 823 137zm0 384C758 494 658 473 528 458C454 446 401 434 370 423C339 410 317 392 300 368S274 319 274 291c0 -46 19 -84 55 -111c36 -31 89 -45 159 -43c69 -2 131 12 186 43c54 27 94 67 118 116c20 36 29 91 29 165l2 60zM302 1207v191H494V1207H302zm384 0v191H877V1207H686z"/><glyph unicode="K" horiz-adv-x="1371" d="M165 0V1481H356V776l724 705h264L722 876L1371 0H1140L588 746L356 521V0H165z"/><glyph unicode="S" horiz-adv-x="1371" d="M110 494H302c8 -79 27 -144 58 -192c31 -52 77 -91 142 -120c65 -31 137 -47 216 -45c72 -2 134 9 189 33c54 22 96 55 123 96c27 39 39 82 39 130c0 44 -10 86 -32 122c-21 34 -62 63 -124 89c-37 13 -123 37 -257 72C523 711 430 742 375 773C303 809 250 855 216 910s-51 117 -51 187c0 74 22 144 63 209s103 115 183 149c83 34 172 51 269 53c110 -2 208 -20 290 -55c82 -36 147 -87 192 -154c45 -68 69 -146 72 -230H1042c-10 90 -43 156 -101 204c-57 45 -141 69 -252 71c-117 -2 -201 -24 -254 -69c-51 -44 -79 -98 -79 -159c0 -55 19 -100 57 -134C451 946 547 910 701 874c156 -38 262 -70 319 -96c82 -41 144 -91 183 -151c40 -61 58 -132 58 -211c0 -80 -22 -156 -66 -224C1150 122 1087 67 1004 29C922 -9 829 -27 727 -27C596 -27 487 -9 398 33C308 72 240 134 189 216c-50 80 -76 173 -79 278z"/><glyph unicode="q" horiz-adv-x="1152" d="M823 -411V123C795 79 756 41 704 14C655 -14 602 -27 543 -27C418 -27 310 21 219 123C129 225 82 365 82 545c0 106 19 202 55 288s88 151 156 195c69 45 144 67 226 69c129 -2 230 -65 304 -189v161h192V-411H823zM274 535c0 -134 28 -235 82 -300C411 168 478 135 554 137c73 -2 137 29 190 93c53 61 79 159 79 289c0 136 -28 239 -84 309C684 896 617 931 542 932C468 931 404 898 353 835C302 770 274 668 274 535z"/><glyph unicode="A" horiz-adv-x="1371" d="M-10 0L559 1481H783L1354 0H1152L980 466H362L192 0H-10zM422 631H922L780 1016c-45 124 -81 223 -108 300C639 1224 605 1133 571 1040L422 631z"/><glyph unicode="0" horiz-adv-x="1152" d="M82 725c0 173 19 315 55 428c38 110 93 192 165 247c72 52 164 79 274 81c82 -2 156 -19 221 -50c65 -33 116 -79 151 -137c36 -62 65 -135 87 -221c24 -88 34 -204 34 -348c0 -175 -17 -317 -54 -427C979 185 924 103 852 51C780 -2 687 -27 576 -27C430 -27 315 17 231 111C132 242 82 447 82 725zm192 2c0 -247 29 -408 88 -480C420 171 490 135 576 137c86 -2 156 34 214 110c58 72 87 233 87 480c0 234 -27 392 -84 471c-54 77 -128 116 -221 118c-84 -2 -154 -36 -210 -104C303 1123 274 961 274 727z"/><glyph unicode="'" horiz-adv-x="384" d="M125 960L82 1234v247H274V1234L228 960H125z"/><glyph unicode="G" horiz-adv-x="1590" d="M850 603V768h603V207C1359 129 1261 69 1160 31C1061 -9 958 -27 852 -27C710 -27 579 2 463 65C346 127 259 216 199 336C141 452 110 584 110 732c0 144 31 277 89 404c58 124 144 218 253 280c112 60 240 90 384 92c107 -2 201 -19 285 -53c86 -34 152 -82 200 -142c48 -62 86 -142 110 -238l-176 -48c-23 72 -50 130 -83 174c-31 42 -77 76 -139 103c-60 24 -126 38 -200 40c-87 -2 -163 -16 -228 -43C540 1272 488 1236 449 1191c-39 -46 -70 -96 -93 -147C320 948 302 847 302 740c0 -137 22 -250 66 -339C413 310 478 243 564 201c86 -45 176 -66 272 -64c84 -2 167 16 245 52c79 34 139 73 180 114V603H850z"/><glyph unicode="M" horiz-adv-x="1673" d="M137 0V1481H435L768 437c31 -99 55 -171 68 -218c16 52 40 131 72 237l328 1025h300V0H1344V1289L936 0H735L329 1289V0H137z"/><glyph unicode="F" horiz-adv-x="1261" d="M165 0V1481h987V1316H356V850h686V686H356V0H165z"/><glyph unicode="H" horiz-adv-x="1481" d="M165 0V1481H356V850h768v631h192V0H1124V686H356V0H165z"/><glyph unicode="P" horiz-adv-x="1371" d="M165 0V1481H706c96 -2 168 -7 218 -16c72 -13 130 -36 178 -70s87 -82 117 -142c29 -62 42 -129 42 -201c0 -127 -37 -235 -116 -320C1068 644 927 602 723 603H356V0H165zM356 768H728c124 -2 213 22 264 72c52 48 77 116 77 207c0 62 -15 117 -46 163c-31 45 -70 75 -120 92c-31 7 -91 12 -178 14H356V768z"/><glyph unicode="4" horiz-adv-x="1152" d="M686 0V356H27V548l713 905H877V548h192V356H877V0H686zm0 548v533L264 548H686z"/><glyph unicode="N" horiz-adv-x="1481" d="M165 0V1481H368L1124 324V1481h192V0H1111L356 1155V0H165z"/><glyph unicode="w" horiz-adv-x="1453" d="M310 0L-14 1069H185L367 451L422 221c3 10 20 84 51 221l170 627H812L980 444l48 -201l57 213l182 613h200L1140 0H934L770 636L727 823L516 0H310z"/><glyph unicode="ü" horiz-adv-x="1152" d="M823 0V161C742 34 632 -27 492 -27C430 -27 374 -17 320 7C267 31 228 60 202 98c-25 36 -44 82 -55 137c-6 34 -10 91 -10 169v665H329V478c0 -96 3 -159 10 -190c12 -48 36 -86 72 -111c36 -28 81 -42 132 -40c55 -2 105 12 151 40c48 27 81 65 99 113c21 48 30 116 30 209v570h192V0H823zM274 1207v191H466V1207H274zm384 0v191H850V1207H658z"/><glyph unicode="ß" horiz-adv-x="1261" d="M165 0V1009c0 122 15 216 46 285c31 65 84 118 157 156c74 38 156 56 247 58c122 -2 214 -32 278 -91c63 -60 94 -128 94 -205c0 -36 -5 -72 -19 -108c-13 -38 -36 -84 -68 -136C869 913 848 877 840 857c-9 -22 -14 -40 -17 -53c-4 -24 1 -45 15 -64c14 -22 55 -54 122 -96c92 -60 152 -108 181 -142c45 -55 66 -116 66 -187c0 -96 -35 -176 -107 -243C1028 3 939 -27 831 -27C747 -27 674 -5 608 43C545 91 497 153 466 228l165 72c27 -63 58 -106 92 -129c35 -24 69 -36 105 -34c51 -2 96 14 132 48c37 33 55 72 55 118c5 35 -4 65 -26 93c-17 14 -55 46 -113 94C759 554 691 607 670 648c-26 38 -39 79 -39 122c0 25 5 53 13 80c11 27 33 70 69 129c38 58 62 101 72 130c12 27 24 55 38 79c0 39 -19 75 -59 108c-37 30 -89 46 -154 48c-75 -2 -135 -24 -183 -67C380 1232 356 1136 356 992V0H165z"/><glyph unicode="é" horiz-adv-x="1152" d="M874 329l189 -27C1033 195 979 113 898 57C819 0 716 -27 591 -27C435 -27 312 19 219 117C129 213 82 348 82 524c0 180 47 321 139 422c93 99 213 149 360 151c144 -2 262 -52 353 -148c91 -97 135 -233 135 -407c0 -14 0 -30 -1 -48H274c7 -117 40 -206 98 -266c60 -62 134 -93 223 -91c67 -2 123 14 169 45c47 29 83 78 110 147zM274 658H877c-6 79 -30 139 -70 180c-58 62 -133 93 -226 94C497 931 427 905 368 857C312 805 281 740 274 658zm165 549l109 274H795L576 1207H439z"/><glyph unicode="V" horiz-adv-x="1371" d="M591 0L12 1481H219L619 416c32 -85 60 -166 80 -238c24 79 50 158 79 238l401 1065h206L805 0H591z"/><glyph unicode="-" horiz-adv-x="686" d="M55 439V603H603V439H55z"/><glyph unicode="x" horiz-adv-x="987" d="M0 0L387 540L27 1069H255L430 814c33 -48 58 -86 76 -110c29 38 56 76 80 112l182 253H996L617 540L987 0H758L545 312l-46 65L228 0H0z"/><glyph unicode="T" horiz-adv-x="1234" d="M521 0V1316H27v165H1207V1316H713V0H521z"/><glyph unicode="Z" horiz-adv-x="1261" d="M27 0V171l763 955c55 65 105 129 151 190H110v165H1179V1316L350 279L257 165h950V0H27z"/><glyph unicode="ø" horiz-adv-x="1261" d="M919 994l109 144l84 -60L996 925c46 -58 77 -111 94 -157c24 -69 34 -148 34 -235C1124 329 1068 180 953 86C860 9 749 -27 619 -27C512 -27 416 0 332 60L223 -82l-84 58L250 123c-44 45 -75 91 -96 139c-29 72 -44 156 -44 252c0 202 51 351 150 444c100 91 218 137 354 139c56 -2 108 -10 154 -26c48 -17 97 -43 151 -77zM817 864c-61 44 -126 67 -195 68C531 931 456 896 394 828C332 759 302 658 302 524c0 -102 22 -186 63 -252L817 864zm64 -89L430 189c53 -36 113 -54 178 -52c95 -2 172 31 233 100c62 65 91 166 91 303c0 48 -3 92 -13 132c-6 26 -18 60 -38 103z"/><glyph unicode="z" horiz-adv-x="1015" d="M27 0V154L663 905c-68 -2 -130 -2 -185 0H82v164H932V929L372 271L281 165c77 -2 149 -2 214 0H960V0H27z"/><glyph unicode="Q" horiz-adv-x="1590" d="M1241 153C1328 89 1409 45 1481 19l-57 -136c-99 35 -200 91 -301 168C1020 -2 905 -27 778 -27S536 3 432 69C329 132 249 223 194 341C139 458 110 591 110 739c0 144 29 277 84 399c56 120 137 211 240 274c104 62 221 94 347 96c131 -2 249 -34 352 -99c104 -67 183 -158 238 -274c55 -119 82 -251 82 -396c0 -124 -17 -235 -53 -333C1366 307 1313 223 1241 153zM831 403c108 -33 197 -79 266 -141c110 105 164 264 164 478c0 120 -18 225 -58 316c-38 89 -94 159 -170 211c-73 49 -157 75 -250 77C644 1342 530 1290 439 1191C348 1088 302 939 302 740C302 545 348 394 437 291C528 187 643 135 783 137c67 -2 129 12 187 40c-58 37 -118 66 -183 85l44 141z"/><glyph unicode="8" horiz-adv-x="1152" d="M363 800C288 826 231 865 194 917c-38 50 -57 111 -57 183c0 107 40 196 115 269c77 72 180 110 307 112c130 -2 233 -40 312 -113c78 -76 116 -167 116 -273c0 -70 -17 -130 -55 -180C895 864 840 826 764 800C855 770 924 720 972 655c48 -67 70 -146 70 -235C1042 291 999 185 910 99C821 14 706 -27 562 -27S303 14 214 101C127 187 82 295 82 425c0 94 26 175 74 240S274 775 363 800zm-34 302c0 -69 21 -122 58 -163c40 -43 98 -63 177 -62c77 -1 135 19 173 62c39 41 58 91 58 153c0 61 -19 113 -60 157c-39 43 -97 65 -173 67c-75 -2 -134 -24 -173 -65c-39 -43 -60 -92 -60 -149zM274 427c0 -52 10 -100 29 -146c19 -48 53 -84 105 -108c51 -26 103 -38 154 -36c93 -2 165 24 214 79c50 53 74 122 74 206c0 82 -26 150 -77 207c-51 55 -123 82 -216 84C468 711 398 684 348 631C300 576 274 507 274 427z"/><glyph unicode="W" horiz-adv-x="2057" d="M444 0L27 1481H225L459 509C485 406 511 305 535 206c44 149 70 236 77 262L910 1481h235L1362 744c55 -185 108 -365 160 -538c19 73 43 171 70 294l238 981h199L1640 0H1414L1076 1140c-27 91 -43 144 -48 161c-24 -82 -43 -148 -58 -194L644 0H444z"/><glyph unicode="â" horiz-adv-x="1152" d="M823 137C764 75 704 33 643 9C581 -15 516 -27 446 -27C329 -27 238 0 177 58C115 117 82 190 82 283c0 51 12 99 36 144c24 43 55 79 93 106c38 26 80 46 128 62c36 7 89 17 161 27c146 16 252 36 321 64c2 20 2 36 2 42c0 69 -16 117 -50 146c-45 38 -111 57 -201 58C490 931 428 915 389 888C350 859 320 809 302 740L110 768c17 73 43 133 80 181c38 47 91 83 161 108c72 24 153 38 245 40c93 -2 167 -14 225 -34c58 -23 99 -50 127 -83c27 -34 46 -75 56 -123c7 -34 11 -89 11 -165V458c0 -167 5 -273 12 -321c6 -48 22 -94 42 -137H877C850 38 831 82 823 137zm0 384C758 494 658 473 528 458C454 446 401 434 370 423C339 410 317 392 300 368S274 319 274 291c0 -46 19 -84 55 -111c36 -31 89 -45 159 -43c69 -2 131 12 186 43c54 27 94 67 118 116c20 36 29 91 29 165l2 60zM576 1371L452 1207H260l206 274H686L891 1207H699L576 1371z"/><glyph unicode="è" horiz-adv-x="1152" d="M874 329l189 -27C1033 195 979 113 898 57C819 0 716 -27 591 -27C435 -27 312 19 219 117C129 213 82 348 82 524c0 180 47 321 139 422c93 99 213 149 360 151c144 -2 262 -52 353 -148c91 -97 135 -233 135 -407c0 -14 0 -30 -1 -48H274c7 -117 40 -206 98 -266c60 -62 134 -93 223 -91c67 -2 123 14 169 45c47 29 83 78 110 147zM274 658H877c-6 79 -30 139 -70 180c-58 62 -133 93 -226 94C497 931 427 905 368 857C312 805 281 740 274 658zm439 549H576L356 1481H603L713 1207z"/><glyph unicode="D" horiz-adv-x="1481" d="M165 0V1481H667c113 -2 200 -9 260 -23c84 -20 154 -56 213 -106c79 -67 137 -151 174 -253c38 -103 57 -222 57 -352c0 -113 -12 -214 -39 -300C1306 360 1273 288 1232 231C1191 173 1147 129 1099 98C1051 63 994 39 925 24C857 7 780 0 691 0H165zM356 165H670c98 -2 175 6 230 25c55 17 99 45 132 79c46 46 82 110 108 190c27 79 39 177 39 292c0 156 -24 276 -75 361c-52 84 -113 143 -185 173c-52 19 -138 29 -254 31H356V165z"/><glyph unicode="U" horiz-adv-x="1481" d="M1124 1481h192V624c0 -151 -15 -271 -49 -357C1232 178 1172 108 1085 53C999 -2 884 -27 744 -27C607 -27 495 -5 408 43C320 89 259 158 221 250c-38 89 -56 214 -56 374v857H356V634c0 -130 12 -224 36 -283C416 290 456 243 514 213c58 -35 130 -50 213 -48c144 -2 245 30 306 95c62 64 91 189 91 374v847z"/><glyph unicode="E" horiz-adv-x="1371" d="M165 0V1481H1234V1316H356V850h823V686H356V165h905V0H165z"/><glyph unicode="J" horiz-adv-x="1042" d="M55 415l192 24c5 -119 25 -199 63 -240c38 -43 89 -64 154 -62c50 -2 93 9 127 33c36 20 60 51 74 92c14 38 21 101 21 189V1481H877V470C877 343 864 247 833 180C802 111 754 58 689 24S545 -27 456 -27C326 -27 225 7 154 82C86 154 51 266 55 415z"/></font><font horiz-adv-x="1" id="F5"><font-face units-per-em="2048" font-family="F5" font-weight="700" font-size="74" font-style="italic"/><glyph unicode="N" horiz-adv-x="1481" d="M1237 0H960L566 1015L360 0H82L382 1481H660L1056 466l204 1015h277L1237 0z"/><glyph unicode="u" horiz-adv-x="1261" d="M300 1069H579L439 442C422 367 413 320 413 303c0 -32 12 -60 34 -80c24 -22 53 -33 88 -31c27 -2 53 2 77 12c24 9 50 22 75 43c28 19 50 41 71 67c20 24 41 56 58 99c13 27 25 75 39 142l103 514h279L1018 0H742l31 151C660 31 535 -27 401 -27C317 -27 250 -3 202 46C154 96 129 165 129 252c0 34 12 108 36 219l135 598z"/><glyph unicode="m" horiz-adv-x="1837" d="M298 1069H578L552 939c106 103 216 156 332 158c81 -2 143 -21 185 -55c45 -38 72 -86 83 -147c37 54 89 102 157 142c69 38 141 58 215 60c85 -2 150 -26 198 -72c48 -48 71 -110 71 -185c-7 -36 -19 -100 -38 -189L1621 0H1344l132 650c17 80 25 126 27 137c0 27 -9 48 -27 65c-18 15 -45 24 -81 25c-74 -1 -139 -39 -197 -111C1157 711 1121 617 1090 483L991 0H713L843 638c17 72 24 120 24 143c0 26 -8 48 -29 67c-19 17 -45 28 -79 29c-31 -1 -61 -12 -96 -29C629 829 600 804 574 773C550 740 528 699 511 651C500 626 485 572 461 492L360 0H82L298 1069z"/><glyph unicode="b" horiz-adv-x="1261" d="M82 0L382 1481H660L559 979c55 41 104 70 151 89c46 17 95 27 149 29c114 -2 205 -40 274 -115c68 -77 101 -187 101 -331c0 -99 -15 -193 -46 -286S1116 197 1064 141C1013 82 958 41 901 14C845 -14 785 -27 722 -27C574 -27 466 38 396 171L362 0H82zM466 430c0 -72 21 -130 60 -173c41 -44 88 -67 142 -65c48 -2 95 15 139 50c45 34 81 89 110 164c29 76 43 151 43 230c0 74 -19 132 -59 176c-39 41 -87 64 -142 65C687 876 626 843 572 778C502 686 466 569 466 430z"/><glyph unicode="e" horiz-adv-x="1152" d="M1131 439H411c0 -14 -1 -23 -1 -26c0 -69 20 -122 61 -161c41 -41 93 -62 151 -60c98 -2 173 45 228 137l247 -55C1047 171 980 96 896 46C814 -3 720 -27 617 -27C475 -27 360 15 271 108C182 197 137 319 137 471c0 146 41 276 120 393c110 154 267 231 470 233c130 -2 234 -43 310 -125c77 -83 115 -197 115 -343c0 -72 -7 -135 -21 -190zM877 603c0 11 0 21 0 29c0 79 -17 141 -51 182s-79 62 -137 63C631 876 579 852 533 807C488 759 458 692 440 603H877z"/><glyph unicode="r" horiz-adv-x="795" d="M298 1069H578L540 883c98 140 204 212 317 214c41 -2 84 -12 130 -31L877 835c-27 8 -54 13 -85 15C742 848 691 829 639 792C588 752 547 701 516 638C487 572 458 471 428 334L360 0H82L298 1069z"/><glyph unicode=" " horiz-adv-x="576" d=""/><glyph unicode="o" horiz-adv-x="1261" d="M137 444c0 197 57 355 166 475c110 116 256 176 434 178c156 -2 278 -46 365 -132c89 -89 132 -206 132 -351c0 -177 -55 -328 -165 -453C960 34 814 -27 629 -27C530 -27 442 -9 365 31C290 70 231 127 194 202c-38 74 -57 154 -57 242zM960 648c0 68 -21 123 -62 166c-41 41 -94 62 -159 63C675 876 619 855 569 817C519 776 480 720 452 646C425 571 411 504 411 444c0 -79 23 -141 64 -185c43 -46 96 -69 161 -67c82 -2 151 33 205 103c79 94 119 212 119 353z"/><glyph unicode="f" horiz-adv-x="686" d="M795 1069L740 850H562L387 0H110L283 850H110l55 219H327l23 112c17 89 34 151 49 185c23 41 55 75 98 103c45 24 99 37 168 39c86 -2 175 -19 267 -50L877 1253c-63 22 -114 34 -155 36c-31 -2 -54 -14 -69 -34c-10 -16 -21 -52 -31 -110l-17 -76H795z"/><glyph unicode="P" horiz-adv-x="1371" d="M360 0H82L382 1481H991c109 -2 195 -16 257 -40c63 -25 113 -67 150 -123c38 -58 55 -127 55 -206c0 -75 -13 -147 -44 -216C1378 826 1342 770 1297 728c-42 -42 -89 -75 -138 -96C1109 610 1042 595 956 584C907 578 814 574 679 576H478L360 0zM528 823H631c178 -2 298 6 356 27c60 19 106 50 141 94c34 41 51 89 51 141c0 32 -8 60 -27 84c-17 20 -43 38 -76 48c-32 10 -104 15 -217 17H610L528 823z"/><glyph unicode="d" horiz-adv-x="1261" d="M1073 0H795l22 115C766 62 716 24 667 3C619 -17 562 -27 500 -27C392 -27 305 9 238 84S137 271 137 422c0 171 48 325 144 466c96 137 221 207 379 209c144 -2 250 -62 320 -178l115 562h278L1073 0zM411 434c0 -79 19 -139 57 -180c38 -43 86 -64 140 -62c52 -2 100 15 144 51c45 35 81 89 108 165c28 72 40 144 40 212c0 76 -21 138 -62 185s-87 71 -142 72C614 876 545 828 492 735C439 641 411 540 411 434z"/><glyph unicode="c" horiz-adv-x="1152" d="M795 356l274 -37C1025 204 958 118 871 60C783 0 682 -27 566 -27C435 -27 331 10 254 93C177 173 137 286 137 430c0 117 24 226 70 331c48 103 119 183 213 245c96 58 199 89 312 91c123 -2 223 -34 296 -100c74 -66 115 -152 124 -257L877 713c-6 55 -24 96 -53 123c-29 26 -66 40 -114 41C655 876 605 853 557 812C511 770 475 706 449 624C425 540 411 463 411 391c0 -65 16 -115 45 -149c31 -35 67 -52 111 -50c45 -2 89 12 131 39c41 28 73 69 97 125z"/><glyph unicode="t" horiz-adv-x="686" d="M137 850l55 219H341l33 165l317 192L619 1069H823L768 850H574L482 394C464 312 454 266 454 255c0 -24 9 -42 26 -53c17 -13 48 -19 91 -17c15 -2 53 0 115 7L631 -14C579 -24 524 -27 470 -27C363 -27 286 -9 238 31c-48 38 -73 92 -73 164c0 31 15 107 44 227l87 428H137z"/><glyph unicode="s" horiz-adv-x="1152" d="M27 310l275 46C329 295 363 252 404 228c42 -26 98 -38 168 -36c74 -2 132 12 177 39c31 18 46 41 46 69c0 17 -7 32 -24 50c-13 13 -56 30 -128 54C458 461 341 507 296 542C228 593 192 662 192 749c0 82 33 156 96 219c92 84 226 127 404 129c143 -2 251 -28 323 -79c72 -53 118 -123 137 -211L877 768c-13 31 -37 56 -72 75c-44 21 -97 33 -162 34C581 876 535 867 507 850C480 831 466 811 466 790c0 -24 14 -44 41 -62c17 -12 74 -30 167 -56C819 629 917 590 965 552c70 -58 104 -125 104 -202C1069 247 1027 158 939 84C852 9 728 -27 569 -27C411 -27 290 0 204 60C118 118 58 201 27 310z"/><glyph unicode=":" horiz-adv-x="686" d="M356 1069H631L576 795H302l54 274zM192 274H466L411 0H137l55 274z"/></font>
</defs>
</svg>
